<svg width="518" height="112" viewBox="0 0 518 112" fill="none" xmlns="http://www.w3.org/2000/svg">
<path fill-rule="evenodd" clip-rule="evenodd" d="M56 112C86.9279 112 112 86.9279 112 56C112 25.0721 86.9279 0 56 0C25.0721 0 0 25.0721 0 56C0 86.9279 25.0721 112 56 112ZM197 63.5H157.5C157.967 67.6333 159.467 70.9333 162 73.4C164.533 75.8 167.867 77 172 77C174.733 77 177.2 76.3333 179.4 75C181.6 73.6667 183.167 71.8667 184.1 69.6H196.1C194.5 74.8667 191.5 79.1333 187.1 82.4C182.767 85.6 177.633 87.2 171.7 87.2C163.967 87.2 157.7 84.6333 152.9 79.5C148.167 74.3667 145.8 67.8667 145.8 60C145.8 52.3333 148.2 45.9 153 40.7C157.8 35.5 164 32.9 171.6 32.9C179.2 32.9 185.333 35.4667 190 40.6C194.733 45.6667 197.1 52.0667 197.1 59.8L197 63.5ZM171.6 42.6C167.867 42.6 164.767 43.7 162.3 45.9C159.833 48.1 158.3 51.0333 157.7 54.7H185.3C184.767 51.0333 183.3 48.1 180.9 45.9C178.5 43.7 175.4 42.6 171.6 42.6ZM205.289 11V70.5C205.289 75.7667 206.456 79.7 208.789 82.3C211.189 84.9 214.956 86.2 220.089 86.2C221.356 86.2 222.556 86.1 223.689 85.9V74.6L221.589 74.7C218.656 74.7 217.189 73.3667 217.189 70.7V11H205.289ZM279.109 63.5H239.609C240.076 67.6333 241.576 70.9333 244.109 73.4C246.643 75.8 249.976 77 254.109 77C256.843 77 259.309 76.3333 261.509 75C263.709 73.6667 265.276 71.8667 266.209 69.6H278.209C276.609 74.8667 273.609 79.1333 269.209 82.4C264.876 85.6 259.743 87.2 253.809 87.2C246.076 87.2 239.809 84.6333 235.009 79.5C230.276 74.3667 227.909 67.8667 227.909 60C227.909 52.3333 230.309 45.9 235.109 40.7C239.909 35.5 246.109 32.9 253.709 32.9C261.309 32.9 267.443 35.4667 272.109 40.6C276.843 45.6667 279.209 52.0667 279.209 59.8L279.109 63.5ZM253.709 42.6C249.976 42.6 246.876 43.7 244.409 45.9C241.943 48.1 240.409 51.0333 239.809 54.7H267.409C266.876 51.0333 265.409 48.1 263.009 45.9C260.609 43.7 257.509 42.6 253.709 42.6ZM332.798 86V56.2C332.798 52.0667 333.832 48.8667 335.898 46.6C338.032 44.2667 340.898 43.1 344.498 43.1C351.032 43.1 354.298 47.0333 354.298 54.9V86H366.198V53.4C366.198 47.2667 364.565 42.3333 361.298 38.6C358.032 34.8 353.365 32.9 347.298 32.9C339.965 32.9 334.098 35.6333 329.698 41.1C326.498 35.6333 321.298 32.9 314.098 32.9C310.232 32.9 306.998 33.6667 304.398 35.2C301.798 36.7333 299.865 38.6667 298.598 41V34.1H287.598V86H299.498V55.8C299.498 51.8667 300.532 48.7667 302.598 46.5C304.732 44.2333 307.565 43.1 311.098 43.1C317.632 43.1 320.898 47.0333 320.898 54.9V86H332.798ZM425.379 63.5H385.879C386.346 67.6333 387.846 70.9333 390.379 73.4C392.912 75.8 396.246 77 400.379 77C403.112 77 405.579 76.3333 407.779 75C409.979 73.6667 411.546 71.8667 412.479 69.6H424.479C422.879 74.8667 419.879 79.1333 415.479 82.4C411.146 85.6 406.012 87.2 400.079 87.2C392.346 87.2 386.079 84.6333 381.279 79.5C376.546 74.3667 374.179 67.8667 374.179 60C374.179 52.3333 376.579 45.9 381.379 40.7C386.179 35.5 392.379 32.9 399.979 32.9C407.579 32.9 413.712 35.4667 418.379 40.6C423.112 45.6667 425.479 52.0667 425.479 59.8L425.379 63.5ZM399.979 42.6C396.246 42.6 393.146 43.7 390.679 45.9C388.212 48.1 386.679 51.0333 386.079 54.7H413.679C413.146 51.0333 411.679 48.1 409.279 45.9C406.879 43.7 403.779 42.6 399.979 42.6ZM444.868 41V34.1H433.868V86H445.768V55.9C445.768 51.9 446.835 48.7667 448.968 46.5C451.168 44.2333 454.168 43.1 457.968 43.1C461.435 43.1 464.001 44.1667 465.668 46.3C467.401 48.3667 468.268 51.2333 468.268 54.9V86H480.168V53.4C480.168 47.2 478.468 42.2333 475.068 38.5C471.735 34.7667 467.001 32.9 460.868 32.9C456.935 32.9 453.568 33.7 450.768 35.3C448.035 36.8333 446.068 38.7333 444.868 41ZM514.922 75.4V85.7C513.455 86.1 511.389 86.3 508.722 86.3C498.589 86.3 493.522 81.2 493.522 71V43.6H485.622V34.1H493.522V20.6H505.422V34.1H515.122V43.6H505.422V69.8C505.422 73.8667 507.355 75.9 511.222 75.9L514.922 75.4ZM45.7619 26.0929C45.7619 23.8325 47.5982 22 49.8633 22C65.2158 22 77.6615 34.4199 77.6615 49.7405C77.6615 52.0009 75.8253 53.8334 73.5601 53.8334C71.295 53.8334 69.4587 52.0009 69.4587 49.7405C69.4587 38.9407 60.6856 30.1858 49.8633 30.1858C47.5982 30.1858 45.7619 28.3533 45.7619 26.0929ZM90.0004 49.7405C90.0004 47.4801 88.1641 45.6476 85.899 45.6476C83.6339 45.6476 81.7976 47.4801 81.7976 49.7405C81.7976 60.5403 73.0244 69.2952 62.2022 69.2952C59.937 69.2952 58.1008 71.1277 58.1008 73.3881C58.1008 75.6486 59.937 77.481 62.2022 77.481C77.5547 77.481 90.0004 65.0611 90.0004 49.7405ZM66.3034 85.9069C66.3034 88.1674 64.4672 89.9998 62.202 89.9998C46.8495 89.9998 34.4038 77.5799 34.4038 62.2593C34.4038 59.9989 36.2401 58.1664 38.5052 58.1664C40.7704 58.1664 42.6066 59.9989 42.6066 62.2593C42.6066 73.0591 51.3798 81.814 62.202 81.814C64.4672 81.814 66.3034 83.6465 66.3034 85.9069ZM22 62.2593C22 64.5198 23.8363 66.3522 26.1014 66.3522C28.3665 66.3522 30.2028 64.5198 30.2028 62.2593C30.2028 51.4595 38.976 42.7046 49.7982 42.7046C52.0634 42.7046 53.8996 40.8721 53.8996 38.6117C53.8996 36.3512 52.0634 34.5188 49.7982 34.5188C34.4457 34.5188 22 46.9387 22 62.2593Z" fill="black"/>
</svg>
