<?xml version="1.0" encoding="utf-8"?>
<!-- Generator: Adobe Illustrator 21.0.0, SVG Export Plug-In . SVG Version: 6.00 Build 0)  -->
<svg version="1.1" id="Layer_1" xmlns="http://www.w3.org/2000/svg" xmlns:xlink="http://www.w3.org/1999/xlink" x="0px" y="0px"
	 viewBox="0 0 240 240" style="enable-background:new 0 0 240 240;" xml:space="preserve">
<style type="text/css">
	.st0{fill:#AFDBC5;}
	.st1{fill:#764D80;}
</style>
<g id="Layer_3">
	<g>
		<g>
			<g>
				<path class="st0" d="M183.6,80.7H200c0.9,0,1.6-0.7,1.6-1.6s-0.7-1.6-1.6-1.6h-16.4c-0.9,0-1.6,0.7-1.6,1.6
					S182.7,80.7,183.6,80.7z"/>
				<path class="st0" d="M183.6,51.3h4.9v5l0,0l-5.8,4c-0.7,0.5-0.9,1.5-0.4,2.3c0.5,0.7,1.5,0.9,2.3,0.4l4.6-3.2
					c1.1,2.2,3.3,3.6,5.9,3.6c3.6,0,6.6-3,6.6-6.6v-7.2l0,0c0-0.6-0.3-1.1-0.7-1.4c-0.3-0.2-0.6-0.3-0.9-0.3l0,0h-9.8h-6.5
					c-0.9,0-1.6,0.7-1.6,1.6C182,50.6,182.7,51.3,183.6,51.3z M198.3,56.9c0,1.8-1.5,3.3-3.3,3.3s-3.3-1.5-3.3-3.3v-5.6h6.5
					L198.3,56.9L198.3,56.9z"/>
				<path class="st0" d="M200,123.7c-0.9,0-1.6,0.7-1.6,1.6v4.9h-14.7c-0.9,0-1.6,0.7-1.6,1.6l0,0c0,0.9,0.7,1.6,1.6,1.6h14.7v5
					c0,0.9,0.7,1.6,1.6,1.6s1.6-0.7,1.6-1.6v-6.6l0,0v-6.5C201.6,124.4,200.9,123.7,200,123.7z"/>
				<path class="st0" d="M191.8,94.5c-5.5,0-10,4.5-10,10s4.5,10,10,10s10-4.5,10-10S197.3,94.5,191.8,94.5z M191.8,111.2
					c-3.7,0-6.7-3-6.7-6.7s3-6.7,6.7-6.7s6.7,3,6.7,6.7S195.5,111.2,191.8,111.2z"/>
			</g>
			<g>
				<path class="st0" d="M201.1,157c-0.3-0.3-0.6-0.4-1.1-0.4h-16.5c-0.4,0-0.7,0.1-1.1,0.4c-0.3,0.3-0.4,0.6-0.4,1.1
					c0,0.4,0.1,0.7,0.4,1.1s0.6,0.4,1.1,0.4H200c0.3,0,0.7-0.1,1.1-0.4c0.3-0.3,0.4-0.6,0.4-1.1C201.5,157.7,201.4,157.3,201.1,157z
					"/>
				<path class="st0" d="M201.5,175.3v-0.2c0-0.4-0.1-0.8-0.4-1.1c-0.3-0.3-0.6-0.4-1.1-0.4h-16.5c-0.3,0-0.7,0-1.1,0.3
					c-0.3,0.3-0.4,0.6-0.4,1.1s0.1,0.7,0.4,1.1s0.6,0.4,1.1,0.4h12.1l-7.3,4.9c-0.4,0.4-0.6,0.8-0.6,1.3c0,0.5,0.3,1,0.7,1.3l7.3,5
					h-12.1c-0.3,0-0.7,0.1-1.1,0.4c-0.3,0.3-0.4,0.6-0.4,1.1s0.1,0.7,0.4,1.1s0.6,0.4,1.1,0.4H200c0.4,0,0.7-0.1,1.1-0.4
					s0.4-0.6,0.4-1.1v-0.2c0-0.5-0.1-1.1-0.7-1.4l-9.2-6.1l9.2-6.1C201.2,176.4,201.5,175.9,201.5,175.3z"/>
			</g>
			<g>
				<path class="st0" d="M190.7,146.1c0.3,0,0.6,0.1,0.9,0.4c0.2,0.2,0.4,0.5,0.4,0.9c0,0.3-0.1,0.6-0.4,0.9
					c-0.2,0.2-0.5,0.4-0.9,0.4h-0.5c-0.3,0-0.6-0.1-0.9-0.4c-0.2-0.2-0.4-0.5-0.4-0.9s0.1-0.7,0.4-0.9c0.2-0.2,0.5-0.4,0.9-0.4
					H190.7z"/>
			</g>
		</g>
	</g>
</g>
<g>
	<path class="st1" d="M99.5,48.1H58.4c-11.4,0-20.6,9.2-20.6,20.6c0,0,0,0,0,0v102.8c0,11.4,9.2,20.6,20.6,20.6
		c11.4,0,20.6-9.2,20.6-20.6v-20.6h20.6c28.4,0,51.4-23,51.4-51.4S127.8,48.1,99.5,48.1z"/>
	
		<ellipse transform="matrix(0.8211 -0.5708 0.5708 0.8211 -28.7968 45.5905)" class="st0" cx="58.3" cy="68.7" rx="20.5" ry="20.5"/>
	<path class="st0" d="M147.2,159.6c6.5,9.3,4.3,22.1-5.1,28.6s-22.1,4.3-28.6-5.1l-30.8-44c-6.5-9.3-4.2-22.1,5.1-28.6
		s22.1-4.2,28.6,5.1L147.2,159.6z"/>
</g>
</svg>
