<?xml version="1.0" encoding="utf-8"?>
<!-- Generator: Adobe Illustrator 21.0.0, SVG Export Plug-In . SVG Version: 6.00 Build 0)  -->
<svg version="1.1"
	 id="Layer_1" inkscape:version="0.92.2 (5c3e80d, 2017-08-06)" sodipodi:docname="riot-im-logo-1.svg" xmlns:cc="http://creativecommons.org/ns#" xmlns:dc="http://purl.org/dc/elements/1.1/" xmlns:inkscape="http://www.inkscape.org/namespaces/inkscape" xmlns:rdf="http://www.w3.org/1999/02/22-rdf-syntax-ns#" xmlns:sodipodi="http://sodipodi.sourceforge.net/DTD/sodipodi-0.dtd" xmlns:svg="http://www.w3.org/2000/svg"
	 xmlns="http://www.w3.org/2000/svg" xmlns:xlink="http://www.w3.org/1999/xlink" x="0px" y="0px" viewBox="0 0 163.6 144.2"
	 style="enable-background:new 0 0 163.6 144.2;" xml:space="preserve">
<style type="text/css">
	.st0{fill:#FFFFFF;}
</style>
<g id="Layer_2">
	<g id="Design">
		<path d="M62.3,0.3H21.2C9.8,0.3,0.6,9.5,0.6,20.9c0,0,0,0,0,0v102.8c0,11.4,9.2,20.6,20.6,20.6c11.4,0,20.6-9.2,20.6-20.6v-20.6
			h20.6c28.4,0,51.4-23,51.4-51.4S90.6,0.3,62.3,0.3z"/>
		<path class="st0" d="M21.2,139.1c-8.5,0-15.4-6.9-15.4-15.4V20.9c0-8.5,6.8-15.3,15.3-15.4h41.2c25.5,0.4,46,21.4,45.6,46.9
			c-0.4,25-20.6,45.2-45.6,45.6H36.6v25.7C36.6,132.2,29.7,139.1,21.2,139.1z"/>
		<path d="M21.2,134c-5.7,0-10.3-4.6-10.3-10.3V20.9c0-5.6,4.5-10.2,10.1-10.3h41.3c22.7,0,41.1,18.4,41.1,41.1
			c0,22.7-18.4,41.1-41.1,41.1H31.5v30.8C31.4,129.4,26.8,134,21.2,134z"/>
		<path class="st0" d="M21.2,128.9c-2.9,0-5.2-2.3-5.2-5.1c0,0,0,0,0,0V20.9c0-2.8,2.2-5.1,5-5.2h41.3c19.9,0,36,16.1,36,36
			s-16.1,36-36,36H26.3v36C26.3,126.5,24,128.8,21.2,128.9z"/>
		<path d="M21.2,82.6h41.1c17.1,0,30.9-13.8,30.9-30.9S79.3,20.8,62.3,20.8H21.2L21.2,82.6z"/>
		<path class="st0" d="M26.3,77.5V26h36c14.2,0.3,25.5,12,25.2,26.3c-0.3,13.8-11.4,25-25.2,25.2H26.3z"/>
		<path d="M31.4,72.3V31.1h30.8c11.4,0.3,20.4,9.7,20.2,21.1c-0.2,11-9.1,19.9-20.2,20.2H31.4z"/>
		<path class="st0" d="M36.6,67.2v-31h25.7c8.6,0,15.5,6.9,15.5,15.5s-6.9,15.5-15.5,15.5l0,0H36.6z"/>
		<path d="M41.7,62.1V41.4h20.6c5.7,0,10.4,4.6,10.4,10.4S68,62.1,62.3,62.1l0,0L41.7,62.1z"/>
		<path class="st0" d="M46.8,56.9V46.5h15.4c2.9,0,5.2,2.3,5.2,5.2S65.2,57,62.3,57L46.8,56.9z"/>
		<ellipse transform="matrix(0.8192 -0.5736 0.5736 0.8192 -8.264 15.5293)" cx="20.5" cy="20.9" rx="20.6" ry="20.6"/>
		<path d="M109.3,111.9c6.5,9.3,4.3,22.1-5.1,28.6c-9.3,6.5-22.1,4.3-28.6-5.1l0,0l-30.8-44c-6.5-9.3-4.2-22.1,5.1-28.6
			s22.1-4.2,28.6,5.1L109.3,111.9z"/>
	</g>
</g>
<g id="g3908_1_">
	<g id="g3896_1_">
		<path id="path3888_1_" inkscape:connector-curvature="0" d="M145.7,33.1h16.4c0.9,0,1.6-0.7,1.6-1.6s-0.7-1.6-1.6-1.6h-16.4
			c-0.9,0-1.6,0.7-1.6,1.6S144.8,33.1,145.7,33.1z"/>
		<path id="path3890_1_" inkscape:connector-curvature="0" d="M145.7,3.7h4.9v5l0,0l-5.8,4c-0.7,0.5-0.9,1.5-0.4,2.3
			c0.5,0.7,1.5,0.9,2.3,0.4l4.6-3.2c1.1,2.2,3.3,3.6,5.9,3.6c3.6,0,6.6-3,6.6-6.6V2l0,0c0-0.6-0.3-1.1-0.7-1.4
			c-0.3-0.2-0.6-0.3-0.9-0.3l0,0h-9.8h-6.5c-0.9,0-1.6,0.7-1.6,1.6C144.1,3,144.8,3.7,145.7,3.7z M160.4,9.3c0,1.8-1.5,3.3-3.3,3.3
			s-3.3-1.5-3.3-3.3V3.7h6.5L160.4,9.3z"/>
		<path id="path3892_1_" inkscape:connector-curvature="0" d="M162.1,76.1c-0.9,0-1.6,0.7-1.6,1.6v4.9h-14.7c-0.9,0-1.6,0.7-1.6,1.6
			l0,0c0,0.9,0.7,1.6,1.6,1.6h14.7v5c0,0.9,0.7,1.6,1.6,1.6c0.9,0,1.6-0.7,1.6-1.6v-6.6l0,0v-6.5C163.7,76.8,163,76.1,162.1,76.1z"
			/>
		<path id="path3894_1_" inkscape:connector-curvature="0" d="M153.9,46.9c-5.5,0-10,4.5-10,10s4.5,10,10,10s10-4.5,10-10
			S159.4,46.9,153.9,46.9z M153.9,63.6c-3.7,0-6.7-3-6.7-6.7s3-6.7,6.7-6.7s6.7,3,6.7,6.7S157.6,63.6,153.9,63.6z"/>
	</g>
	<g id="g3902_1_">
		<path id="path3898_1_" inkscape:connector-curvature="0" d="M163.2,109.4c-0.3-0.3-0.6-0.4-1.1-0.4h-16.5c-0.4,0-0.7,0.1-1.1,0.4
			c-0.3,0.3-0.4,0.6-0.4,1.1c0,0.4,0.1,0.7,0.4,1.1c0.3,0.4,0.6,0.4,1.1,0.4h16.5c0.3,0,0.7-0.1,1.1-0.4c0.3-0.3,0.4-0.6,0.4-1.1
			C163.6,110.1,163.5,109.7,163.2,109.4z"/>
		<path id="path3900_1_" inkscape:connector-curvature="0" d="M163.6,127.7v-0.2c0-0.4-0.1-0.8-0.4-1.1c-0.3-0.3-0.6-0.4-1.1-0.4
			h-16.5c-0.3,0-0.7,0-1.1,0.3c-0.3,0.3-0.4,0.6-0.4,1.1s0.1,0.7,0.4,1.1c0.3,0.4,0.6,0.4,1.1,0.4h12.1l-7.3,4.9
			c-0.4,0.4-0.6,0.8-0.6,1.3s0.3,1,0.7,1.3l7.3,5h-12.1c-0.3,0-0.7,0.1-1.1,0.4c-0.3,0.3-0.4,0.6-0.4,1.1s0.1,0.7,0.4,1.1
			c0.3,0.4,0.6,0.4,1.1,0.4h16.4c0.4,0,0.7-0.1,1.1-0.4c0.4-0.3,0.4-0.6,0.4-1.1v-0.2c0-0.5-0.1-1.1-0.7-1.4l-9.2-6.1l9.2-6.1
			C163.3,128.8,163.6,128.3,163.6,127.7L163.6,127.7z"/>
	</g>
	<g id="g3906_1_">
		<path id="path3904_1_" inkscape:connector-curvature="0" d="M152.8,98.5c0.3,0,0.6,0.1,0.9,0.4c0.2,0.2,0.4,0.5,0.4,0.9
			c0,0.3-0.1,0.6-0.4,0.9c-0.2,0.2-0.5,0.4-0.9,0.4h-0.5c-0.3,0-0.6-0.1-0.9-0.4c-0.2-0.2-0.4-0.5-0.4-0.9s0.1-0.7,0.4-0.9
			c0.2-0.2,0.5-0.4,0.9-0.4H152.8z"/>
	</g>
</g>
</svg>
