<?xml version="1.0" encoding="utf-8"?>
<!-- Generator: Adobe Illustrator 21.0.0, SVG Export Plug-In . SVG Version: 6.00 Build 0)  -->
<svg version="1.1" xmlns="http://www.w3.org/2000/svg" xmlns:xlink="http://www.w3.org/1999/xlink" x="0px" y="0px"
	 viewBox="0 0 1190.6 841.9" style="enable-background:new 0 0 1190.6 841.9;" xml:space="preserve">
<style type="text/css">
	.st0{fill:#7DC8A2;}
	.st1{fill:#AFDBC5;}
	.st2{fill:#764D80;}
	.st3{fill:#764D80;stroke:#764D80;stroke-miterlimit:10;}
</style>
<g id="Grid">
	<g>
	</g>
	<g>
	</g>
	<g>
	</g>
	<g>
	</g>
	<g>
	</g>
</g>
<g id="Design">
	<g>
		<g>
		</g>
	</g>
</g>
<g id="Layer_3">
	<g>
		<g>
			<g>
				<path class="st0" d="M584.6,327.3h-40.9c-0.1,0-0.2,0-0.3,0c-11.4,0-20.6,9.2-20.6,20.6v102.8c0,11.4,9.2,20.6,20.6,20.6
					s20.6-9.2,20.6-20.6v-20.6h20.6c28.3,0,51.4-23.1,51.4-51.4S612.9,327.3,584.6,327.3z"/>
				<path class="st1" d="M543.5,466.1c-8.5,0-15.4-6.9-15.4-15.4V347.8c0-8.5,6.9-15.4,15.3-15.4c0.1,0,0.2,0,0.3,0h40.9
					c25.5,0,46.3,20.8,46.3,46.3s-20.8,46.3-46.3,46.3h-25.7v25.7C558.9,459.1,552,466.1,543.5,466.1z"/>
				<path class="st0" d="M543.5,460.9c-5.7,0-10.3-4.6-10.3-10.3V347.8c0-5.6,4.5-10.2,10.1-10.3c0.1,0,0.2,0,0.3,0l41,0
					c22.7,0,41.1,18.5,41.1,41.1s-18.5,41.1-41.1,41.1h-30.8v30.8C553.8,456.3,549.2,460.9,543.5,460.9z"/>
				<path class="st1" d="M543.5,455.8c-2.9,0-5.2-2.3-5.2-5.2V347.8c0-2.8,2.2-5.1,5-5.2l0.2,0l41.1,0c19.9,0,36,16.2,36,36
					s-16.1,36-36,36h-35.9v36C548.7,453.5,546.4,455.8,543.5,455.8z"/>
				<path class="st0" d="M543.5,409.5h41.1c17,0,30.9-13.8,30.9-30.9s-13.8-30.9-30.9-30.9h-41.1L543.5,409.5z"/>
				<path class="st1" d="M548.7,404.4l0-51.5h36c14.2,0,25.7,11.5,25.7,25.7s-11.5,25.7-25.7,25.7H548.7z"/>
				<path class="st0" d="M553.8,399.3l0-41.2h30.8c11.4,0,20.6,9.2,20.6,20.6s-9.2,20.6-20.6,20.6H553.8z"/>
				<path class="st1" d="M558.9,394.2l0-31h25.7c8.5,0,15.5,6.9,15.5,15.5s-6.9,15.5-15.5,15.5H558.9z"/>
				<path class="st0" d="M564,389l0-20.7h20.6c5.7,0,10.4,4.6,10.4,10.4s-4.6,10.4-10.4,10.4H564z"/>
				<path class="st1" d="M569.2,383.9l0-10.5h15.4c2.9,0,5.2,2.3,5.2,5.2s-2.3,5.2-5.2,5.2H569.2z"/>
				<g>
					
						<ellipse transform="matrix(0.8192 -0.5736 0.5736 0.8192 -101.3379 374.2691)" class="st2" cx="542.8" cy="347.8" rx="20.6" ry="20.6"/>
					<path class="st2" d="M631.6,438.8c6.5,9.3,4.3,22.1-5,28.6c-9.3,6.5-22.1,4.3-28.6-5l-30.8-44c-6.5-9.3-4.3-22.1,5-28.6
						c9.3-6.5,22.1-4.3,28.6,5L631.6,438.8z"/>
				</g>
			</g>
		</g>
		<g>
			<g>
				<path class="st2" d="M667.6,359.9H684c0.9,0,1.6-0.7,1.6-1.6s-0.7-1.6-1.6-1.6h-16.4c-0.9,0-1.6,0.7-1.6,1.6
					S666.7,359.9,667.6,359.9z"/>
				<path class="st2" d="M667.6,330.5h4.9v5c0,0,0,0,0,0l-5.8,4c-0.7,0.5-0.9,1.5-0.4,2.3c0.5,0.7,1.5,0.9,2.3,0.4l4.6-3.2
					c1.1,2.2,3.3,3.6,5.9,3.6c3.6,0,6.6-3,6.6-6.6v-7.2c0,0,0,0,0,0c0-0.6-0.3-1.1-0.7-1.4c-0.3-0.2-0.6-0.3-0.9-0.3h0h-9.8h-6.5
					c-0.9,0-1.6,0.7-1.6,1.6C666,329.8,666.7,330.5,667.6,330.5z M682.3,336.1c0,1.8-1.5,3.3-3.3,3.3c-1.8,0-3.3-1.5-3.3-3.3v-5.6
					h6.5V336.1z"/>
				<path class="st2" d="M684,402.9c-0.9,0-1.6,0.7-1.6,1.6v4.9h-14.7c-0.9,0-1.6,0.7-1.6,1.6v0c0,0.9,0.7,1.6,1.6,1.6h14.7v5
					c0,0.9,0.7,1.6,1.6,1.6s1.6-0.7,1.6-1.6V411v0v-6.5C685.6,403.6,684.9,402.9,684,402.9z"/>
				<path class="st2" d="M675.8,373.7c-5.5,0-10,4.5-10,10c0,5.5,4.5,10,10,10c5.5,0,10-4.5,10-10S681.3,373.7,675.8,373.7z
					 M675.8,390.4c-3.7,0-6.7-3-6.7-6.7s3-6.7,6.7-6.7s6.7,3,6.7,6.7S679.5,390.4,675.8,390.4z"/>
			</g>
			<g>
				<path class="st3" d="M667.5,436.3H684c0.3,0,0.5,0.1,0.7,0.3c0.2,0.2,0.3,0.4,0.3,0.7c0,0.3-0.1,0.5-0.3,0.7
					c-0.2,0.2-0.5,0.3-0.7,0.3h-16.5c-0.3,0-0.5-0.1-0.7-0.3c-0.2-0.2-0.3-0.4-0.3-0.7c0-0.3,0.1-0.5,0.3-0.7
					C667,436.4,667.2,436.3,667.5,436.3z"/>
				<path class="st3" d="M667.5,453.3H684c0.3,0,0.5,0.1,0.7,0.3c0.2,0.2,0.3,0.4,0.3,0.7v0.2c0,0.4-0.2,0.7-0.5,1l-9.8,6.5l9.8,6.5
					c0.4,0.2,0.5,0.5,0.5,1v0.2c0,0.3-0.1,0.5-0.3,0.7c-0.2,0.2-0.4,0.3-0.7,0.3h-16.5c-0.3,0-0.5-0.1-0.7-0.3
					c-0.2-0.2-0.3-0.4-0.3-0.7s0.1-0.5,0.3-0.7c0.2-0.2,0.5-0.3,0.7-0.3h13.7l-8.6-5.9c-0.3-0.2-0.5-0.5-0.5-0.9
					c0-0.3,0.2-0.6,0.5-0.9l8.6-5.8h-13.7c-0.3,0-0.5-0.1-0.7-0.3s-0.3-0.4-0.3-0.7c0-0.3,0.1-0.5,0.3-0.7
					C667,453.3,667.2,453.3,667.5,453.3z"/>
			</g>
			<g>
				<path class="st3" d="M674.7,425.3c0.3,0,0.6,0.1,0.9,0.4c0.2,0.2,0.4,0.5,0.4,0.9c0,0.3-0.1,0.6-0.4,0.9
					c-0.2,0.2-0.5,0.4-0.9,0.4h-0.5c-0.3,0-0.6-0.1-0.9-0.4c-0.2-0.2-0.4-0.5-0.4-0.9c0-0.4,0.1-0.7,0.4-0.9
					c0.2-0.2,0.5-0.4,0.9-0.4H674.7z"/>
			</g>
		</g>
	</g>
</g>
</svg>
