<?xml version="1.0" encoding="utf-8"?>
<!-- Generator: Adobe Illustrator 21.0.0, SVG Export Plug-In . SVG Version: 6.00 Build 0)  -->
<svg version="1.1" id="Layer_1" xmlns="http://www.w3.org/2000/svg" xmlns:xlink="http://www.w3.org/1999/xlink" x="0px" y="0px"
	 viewBox="0 0 240 240" style="enable-background:new 0 0 240 240;" xml:space="preserve">
<style type="text/css">
	.st0{fill:#F69E98;}
	.st1{fill:#764D80;}
</style>
<g id="Layer_3">
	<g>
		<g>
			<g>
				<path class="st0" d="M183.6,80.7H200c0.9,0,1.6-0.7,1.6-1.6s-0.7-1.6-1.6-1.6h-16.4c-0.9,0-1.6,0.7-1.6,1.6
					S182.7,80.7,183.6,80.7z"/>
				<path class="st0" d="M183.6,51.3h4.9v5l0,0l-5.8,4c-0.7,0.5-0.9,1.5-0.4,2.3c0.5,0.7,1.5,0.9,2.3,0.4l4.6-3.2
					c1.1,2.2,3.3,3.6,5.9,3.6c3.6,0,6.6-3,6.6-6.6v-7.2l0,0c0-0.6-0.3-1.1-0.7-1.4c-0.3-0.2-0.6-0.3-0.9-0.3l0,0h-9.8h-6.5
					c-0.9,0-1.6,0.7-1.6,1.6C182,50.6,182.7,51.3,183.6,51.3z M198.3,56.9c0,1.8-1.5,3.3-3.3,3.3s-3.3-1.5-3.3-3.3v-5.6h6.5
					L198.3,56.9L198.3,56.9z"/>
				<path class="st0" d="M200,123.7c-0.9,0-1.6,0.7-1.6,1.6v4.9h-14.7c-0.9,0-1.6,0.7-1.6,1.6l0,0c0,0.9,0.7,1.6,1.6,1.6h14.7v5
					c0,0.9,0.7,1.6,1.6,1.6s1.6-0.7,1.6-1.6v-6.6l0,0v-6.5C201.6,124.4,200.9,123.7,200,123.7z"/>
				<path class="st0" d="M191.8,94.5c-5.5,0-10,4.5-10,10s4.5,10,10,10s10-4.5,10-10S197.3,94.5,191.8,94.5z M191.8,111.2
					c-3.7,0-6.7-3-6.7-6.7s3-6.7,6.7-6.7s6.7,3,6.7,6.7S195.5,111.2,191.8,111.2z"/>
			</g>
			<g>
				<path class="st0" d="M201.1,157c-0.3-0.3-0.6-0.4-1.1-0.4h-16.5c-0.4,0-0.7,0.1-1.1,0.4c-0.3,0.3-0.4,0.6-0.4,1.1
					c0,0.4,0.1,0.7,0.4,1.1s0.6,0.4,1.1,0.4H200c0.3,0,0.7-0.1,1.1-0.4c0.3-0.3,0.4-0.6,0.4-1.1C201.5,157.7,201.4,157.3,201.1,157z
					"/>
				<path class="st0" d="M201.5,175.3v-0.2c0-0.4-0.1-0.8-0.4-1.1c-0.3-0.3-0.6-0.4-1.1-0.4h-16.5c-0.3,0-0.7,0-1.1,0.3
					c-0.3,0.3-0.4,0.6-0.4,1.1s0.1,0.7,0.4,1.1s0.6,0.4,1.1,0.4h12.1l-7.3,4.9c-0.4,0.4-0.6,0.8-0.6,1.3c0,0.5,0.3,1,0.7,1.3l7.3,5
					h-12.1c-0.3,0-0.7,0.1-1.1,0.4c-0.3,0.3-0.4,0.6-0.4,1.1s0.1,0.7,0.4,1.1s0.6,0.4,1.1,0.4H200c0.4,0,0.7-0.1,1.1-0.4
					s0.4-0.6,0.4-1.1v-0.2c0-0.5-0.1-1.1-0.7-1.4l-9.2-6.1l9.2-6.1C201.2,176.4,201.5,175.9,201.5,175.3z"/>
			</g>
			<g>
				<path class="st0" d="M190.7,146.1c0.3,0,0.6,0.1,0.9,0.4c0.2,0.2,0.4,0.5,0.4,0.9c0,0.3-0.1,0.6-0.4,0.9
					c-0.2,0.2-0.5,0.4-0.9,0.4h-0.5c-0.3,0-0.6-0.1-0.9-0.4c-0.2-0.2-0.4-0.5-0.4-0.9s0.1-0.7,0.4-0.9c0.2-0.2,0.5-0.4,0.9-0.4
					H190.7z"/>
			</g>
		</g>
	</g>
</g>
<g>
	<path class="st1" d="M99.9,48H58.7c-11.4,0-20.6,9.2-20.6,20.6c0,0,0,0,0,0v102.8c0,11.4,9.2,20.6,20.6,20.6
		c11.4,0,20.6-9.2,20.6-20.6v-20.6h20.5c28.4,0,51.4-23,51.4-51.4S128.2,48,99.9,48z"/>
	<path class="st0" d="M58.7,187.6c-8.9,0-16.2-7.2-16.2-16.2V68.6c0-8.9,7.1-16.1,16-16.2h41.3c26,0,47,21,47,47s-21,47-47,47H74.9
		v25C74.9,180.4,67.7,187.6,58.7,187.6z M58.6,53.9c-8,0.1-14.5,6.6-14.5,14.7v102.8c0,8.1,6.6,14.7,14.7,14.7
		c8.1,0,14.7-6.6,14.7-14.7v-26.5h26.4c25.1,0,45.5-20.4,45.5-45.5S125,53.9,99.9,53.9C99.9,53.9,58.6,53.9,58.6,53.9z"/>
	<path class="st0" d="M58.7,182.4c-6.1,0-11-4.9-11-11V68.6c0-6,4.8-10.8,10.8-11h41.3c23.1,0,41.9,18.7,41.9,41.9
		s-18.7,41.8-41.9,41.8H69.8v30.1C69.8,177.5,64.9,182.4,58.7,182.4C58.8,182.4,58.8,182.4,58.7,182.4z M58.5,59
		c-5.2,0.1-9.3,4.4-9.3,9.6v102.8c-0.2,5.3,4,9.7,9.2,9.8s9.7-4,9.8-9.2c0-0.2,0-0.4,0-0.6v-31.6h31.6c22.3,0,40.3-18.1,40.3-40.4
		c0-22.3-18.1-40.3-40.3-40.3L58.5,59L58.5,59z"/>
	<path class="st0" d="M58.7,177.3c-3.2,0-5.9-2.6-5.9-5.9V68.6c0-3.1,2.5-5.7,5.6-5.9h41.4c20.3,0,36.7,16.4,36.7,36.7
		s-16.4,36.7-36.7,36.7H64.6v35.2C64.6,174.6,62,177.3,58.7,177.3z M58.5,64.2c-2.3,0.2-4.1,2.1-4.1,4.4v102.8c0,2.4,2,4.4,4.4,4.4
		s4.4-2,4.4-4.4v-36.8h36.7c19.4,0,35.2-15.8,35.2-35.2s-15.8-35.2-35.2-35.2L58.5,64.2z"/>
	<path class="st0" d="M99.9,131H58V67.9h41.9c17.4,0,31.6,14.1,31.6,31.6S117.3,131,99.9,131L99.9,131z M59.5,129.5h40.4
		c16.6,0,30.1-13.5,30.1-30.1c0-16.6-13.5-30.1-30.1-30.1H59.5L59.5,129.5z"/>
	<path class="st0" d="M99.9,125.9H63.2V73h36.7c14.6,0.3,26.2,12.3,25.9,26.9C125.5,114.2,114,125.6,99.9,125.9L99.9,125.9z
		 M64.6,124.4h35.2c13.8-0.3,24.7-11.7,24.4-25.4c-0.3-13.4-11-24.2-24.4-24.4H64.6L64.6,124.4z"/>
	<path class="st0" d="M99.9,120.7H68.3V78.2h31.6c11.8,0.3,21.1,10,20.8,21.7C120.4,111.3,111.2,120.5,99.9,120.7z M69.8,119.2h30.1
		c10.9-0.2,19.6-9.3,19.3-20.2c-0.2-10.6-8.8-19.1-19.3-19.3H69.8V119.2z"/>
	<path class="st0" d="M99.9,115.6H73.4V83.3h26.4c8.9,0,16.1,7.2,16.1,16.1S108.8,115.6,99.9,115.6L99.9,115.6z M74.9,114h24.9
		c8.1,0,14.6-6.6,14.6-14.6s-6.6-14.6-14.6-14.6l0,0H74.9V114z"/>
	<path class="st0" d="M99.9,110.4H78.6v-22h21.3c6.1,0,11,4.9,11,11C110.9,105.5,105.9,110.4,99.9,110.4z M80.1,108.9h19.8
		c5.2,0,9.5-4.3,9.5-9.5s-4.3-9.5-9.5-9.5H80.1L80.1,108.9z"/>
	<path class="st0" d="M99.9,105.3H83.7V93.6h16.1c3.2,0,5.9,2.6,5.9,5.9S103.1,105.3,99.9,105.3C99.9,105.3,99.9,105.3,99.9,105.3z
		 M85.2,103.8h14.7c2.4,0,4.4-2,4.4-4.4c0-2.4-2-4.4-4.4-4.4H85.2V103.8z"/>
	<path class="st0" d="M99.4,100.2h-9.3c-0.4,0-0.8-0.3-0.8-0.8s0.3-0.8,0.8-0.8h9.3c0.4,0,0.8,0.3,0.8,0.8S99.8,100.2,99.4,100.2z"
		/>
	<path class="st0" d="M58.7,172.2c-0.4,0-0.8-0.3-0.8-0.8v-36c0-0.4,0.3-0.8,0.8-0.8c0.4,0,0.8,0.3,0.8,0.8v36
		C59.5,171.8,59.2,172.2,58.7,172.2z"/>
	
		<ellipse transform="matrix(0.8192 -0.5736 0.5736 0.8192 -28.7215 46.1209)" class="st0" cx="58.8" cy="68.6" rx="20.6" ry="20.6"/>
	<path class="st0" d="M147.5,159.6c6.5,9.3,4.3,22.1-5.1,28.6s-22.1,4.3-28.6-5.1l-30.8-44c-6.5-9.3-4.2-22.1,5.1-28.6
		s22.1-4.2,28.6,5.1L147.5,159.6z"/>
</g>
</svg>
