<?xml version="1.0" encoding="utf-8"?>
<!-- Generator: Adobe Illustrator 21.0.0, SVG Export Plug-In . SVG Version: 6.00 Build 0)  -->
<svg version="1.1" id="Layer_1" xmlns="http://www.w3.org/2000/svg" xmlns:xlink="http://www.w3.org/1999/xlink" x="0px" y="0px"
	 viewBox="0 0 496 222" style="enable-background:new 0 0 496 222;" xml:space="preserve">
<style type="text/css">
	.st0{fill:#FFFFFF;}
</style>
<g>
	<path class="st0" d="M187.4,112.4c-1.2-2.6,2.9-4.2,4.2-1.7l15.5,30.7l15.1-30.7c1-2.4,5-1.2,4.1,1.5L209,147.3
		c-0.9,1.5-3.1,1.9-4-0.1L187.4,112.4z"/>
	<path class="st0" d="M242,144.2h23.8c2.6,0,2.9,4,0,4h-25.3c-1.7,0-2.8-1.2-2.8-2.7v-33c0-1.4,1-2.6,2.8-2.6h25.3
		c2.6,0,2.4,3.8,0,3.8H242v13.6h22.7c2.4,0,2.6,3.8,0,3.8H242L242,144.2L242,144.2z"/>
	<path class="st0" d="M307.6,146.7c-2.9,1.3-6.1,2.2-9.1,2.2c-10.2,0-19.6-8.4-19.6-20.4c0-9.9,7-17.7,16.3-19.1
		c7-1,13.2,0.8,17.9,5.8c1.8,2-1.4,4.5-3.1,2.7c-4.1-4.4-8.8-5-14.1-4.4c-7.4,1.2-12.7,6.4-12.7,15.1c0,9.1,7,16.1,15.4,16.1
		c2.2,0,4.7-0.6,7-1.8c1.9-1,3.7-2.4,5-4c1.4-2,5,0.1,3.5,2.4C312.4,143.6,310.3,145.4,307.6,146.7z"/>
	<path class="st0" d="M354.5,109.9c2.9,0,2.9,4.1,0,4.1h-13.4c0,10.9,0,21.9,0,32.6c0,1.5-1.3,2.2-2.3,2.2c-1,0-2.2-0.8-2.2-2.2V114
		h-13.2c-2.8,0-2.8-4.1,0-4.1C323.4,109.9,354.5,109.9,354.5,109.9z"/>
	<path class="st0" d="M362.9,128.4c0-9.5,6.4-17.5,16-19.1c2.2-0.3,4.2-0.3,6.4,0c9.2,1.4,16.4,9.1,16.4,19.1
		c0,12.5-9,20.5-19.2,20.5C371.6,148.8,362.9,141.2,362.9,128.4z M367.3,128.6c0,9.9,6.5,16.1,15,16.1c8.1,0,14.8-6,14.8-16.1
		c0-7.8-5.1-14-12.5-15.1c-1.8-0.3-3.6-0.3-5.2,0C372.1,114.5,367.3,120.4,367.3,128.6z"/>
	<path class="st0" d="M419.6,134.8v11.6c0,2.8-4.4,2.8-4.4,0V112c0-1.3,0.9-2,2.2-2h14.2c10.4,0,15.7,5.9,15.7,12.9
		c0,6-3.3,10.5-10.8,11.8l9.7,10.5c2.3,2.3-1,5-2.9,2.9l-12.2-13.2h-11.6L419.6,134.8L419.6,134.8z M419.6,131.1h12.2
		c7.9,0,11.3-3.7,11.1-8.2c0-5-4.2-9-11.1-9h-12.2V131.1z"/>
</g>
<g id="Layer_2">
	<path class="st0" d="M210.4,64.7c0-2,3.7-2.2,3.7,0v28c0,2.4-3.3,2.7-4.4,0.9l-18.3-24.3l0.4,6.8v17.2c0,2.4-3.7,2.4-3.7,0V65.4
		c0-2.4,2.7-2.8,4-1l18.8,25.1l-0.5-7.4L210.4,64.7L210.4,64.7z"/>
	<path class="st0" d="M229.7,91.4h19.3c2,0,2.4,3.2,0,3.2h-20.5c-1.4,0-2.3-0.9-2.3-2.2V65.6c0-1.2,0.8-2,2.3-2h20.5
		c2,0,1.9,3.1,0,3.1h-19.3v11H248c1.9,0,2,3.1,0,3.1h-18.3V91.4z"/>
	<path class="st0" d="M271.2,89.2l8.4-24.8c0.5-1.4,2.6-1.4,3.5,0l9.6,24.8l6.8-25.1c0.8-2,4.2-1.3,3.6,1.4l-8.6,28.7
		c-0.8,1.4-2.6,1.5-3.3,0l-9.6-25.1L273,94.2c-0.6,1.3-2.8,1.5-3.5,0l-9.6-28.7c-0.8-2.2,2.8-3.5,3.6-1.4L271.2,89.2z"/>
	<g>
		<path class="st0" d="M118.4,62.3c-0.1,0.6-0.3,1.3-0.5,1.8c0.6,0.3,1.4,0.5,2,0.8c3.2,1.2,6.1,2.7,9,4.5c1.9,1.3,3.7,2.6,5.5,4.1
			c0.4-0.5,0.9-0.9,1.4-1.3c0.5-0.4,1-0.8,1.7-1.2c-1.3-1.2-2.7-2.3-4.1-3.3c-4.1-2.9-8.6-5.4-13.4-6.9c-0.4-0.1-0.9-0.3-1.3-0.4
			C118.5,61,118.5,61.7,118.4,62.3z"/>
		<path class="st0" d="M103.9,71c5,0,9.2-3.2,10.9-7.7c0.3-0.6,0.4-1.3,0.5-1.8c0.1-0.6,0.1-1.3,0.1-1.9c0,0,0,0,0-0.1
			c0-2-0.5-4.1-1.5-5.8c-2-3.5-5.8-5.8-10-5.8c-4.2,0-7.9,2.3-10,5.8c-1,1.7-1.5,3.7-1.5,5.8c0,0,0,0,0,0.1c0,0.6,0.1,1.3,0.1,1.9
			c0.1,0.6,0.3,1.3,0.5,1.8C94.7,67.8,98.9,71,103.9,71z M96.4,60.8c-0.1-0.4-0.1-0.8-0.1-1.3c0-0.3,0-0.5,0-0.6
			c0.1-2,1.2-3.8,2.6-5.1c1.4-1.2,3.1-1.9,5.1-1.9c1.9,0,3.7,0.8,5.1,1.9c1.4,1.3,2.4,3.1,2.6,5.1c0,0.3,0,0.5,0,0.6
			c0,0.4,0,0.9-0.1,1.3c-0.1,0.6-0.3,1.3-0.5,1.8c-1.2,2.7-3.8,4.6-7,4.6s-5.9-1.9-7-4.6C96.6,62.1,96.5,61.4,96.4,60.8z"/>
		<path class="st0" d="M56.8,117.4c0.6-0.3,1.3-0.4,1.9-0.5c-0.1-0.5-0.3-1-0.3-1.7c-0.4-2.3-0.5-4.6-0.5-7c0-2.8,0.3-5.6,0.8-8.3
			c0.1-0.5,0.3-1,0.3-1.5c-0.6-0.1-1.3-0.3-1.9-0.5c-0.6-0.3-1.2-0.5-1.8-0.8c-0.3,0.9-0.4,1.8-0.5,2.8c-0.5,2.7-0.6,5.5-0.6,8.3
			c0,2.4,0.1,4.7,0.5,7c0.1,1,0.3,1.9,0.5,2.9C55.5,117.7,56.2,117.5,56.8,117.4z"/>
		<path class="st0" d="M67.4,121.2L67.4,121.2c-1.8-1-3.8-1.5-5.8-1.5c-0.8,0-1.5,0.1-2.3,0.3c-0.6,0.1-1.3,0.3-1.8,0.5
			c-0.6,0.3-1.2,0.5-1.8,0.9c-1.7,1-3.1,2.3-4.1,4.1c-1,1.8-1.5,3.8-1.5,5.8c0,4,2,7.8,5.8,10c1.8,1,3.8,1.5,5.8,1.5l0,0
			c1.8,0,3.5-0.4,5.1-1.3c0.6-0.3,1.2-0.6,1.7-1s1-0.8,1.4-1.3c0.6-0.6,1.3-1.4,1.8-2.3c1-1.8,1.5-3.8,1.5-5.8
			C73.2,127.2,71.2,123.4,67.4,121.2z M65.5,124.5c2.4,1.4,3.8,4,3.8,6.7c0,1.3-0.4,2.6-1,3.8c-0.3,0.5-0.5,0.9-0.9,1.3
			c-0.4,0.5-0.9,0.9-1.4,1.3s-1.2,0.6-1.8,0.9c-0.8,0.3-1.7,0.5-2.6,0.5c-1.3,0-2.6-0.4-3.8-1c-2.4-1.4-3.8-4-3.8-6.7
			c0-1.3,0.4-2.6,1-3.8c0.5-0.9,1.2-1.7,1.9-2.2c0.5-0.4,1.2-0.8,1.7-1c0.6-0.3,1.2-0.4,1.8-0.5c0.4,0,0.8-0.1,1.2-0.1
			C63,123.5,64.4,123.9,65.5,124.5"/>
		<path class="st0" d="M136.6,143.3c-0.5-0.4-1-0.8-1.5-1.2c-1.9,1.8-4,3.3-6.1,4.7c-2.8,1.8-5.8,3.3-9,4.5
			c-0.5,0.3-1.2,0.4-1.8,0.6c0.1,0.6,0.3,1.3,0.4,1.9c0,0.5,0.1,1,0.1,1.7c0,0.1,0,0.3,0,0.4c0.4-0.1,0.9-0.3,1.3-0.4
			c5.5-1.9,10.6-4.7,15.1-8.2c1.2-0.9,2.2-1.9,3.3-2.8C137.7,144,137.1,143.7,136.6,143.3z"/>
		<path class="st0" d="M150.6,141.2L150.6,141.2c3.7-2.2,5.8-6,5.8-10c0-1.9-0.5-4-1.5-5.8c-0.8-1.4-1.8-2.6-2.9-3.5
			c-0.5-0.4-1.2-0.8-1.7-1c-0.5-0.3-1.2-0.5-1.8-0.8c-1.2-0.4-2.3-0.5-3.5-0.5c-1.9,0-4,0.5-5.8,1.5c-3.7,2.2-5.8,6-5.8,10
			c0,1.9,0.5,4,1.5,5.8c0.6,1.2,1.5,2,2.4,2.9c0.5,0.4,1,0.8,1.5,1.2c0.5,0.4,1.2,0.6,1.8,0.9c1.3,0.5,2.8,0.8,4.2,0.8l0,0
			C146.8,142.7,148.9,142.2,150.6,141.2L150.6,141.2 M148.7,137.8L148.7,137.8c-1.3,0.6-2.6,1-3.8,1c-0.5,0-1-0.1-1.5-0.1
			c-0.6-0.1-1.3-0.4-1.9-0.6c-0.5-0.3-1.2-0.6-1.7-1c-0.6-0.5-1.2-1.2-1.7-1.9c-0.8-1.3-1-2.6-1-3.8c0-2.7,1.4-5.2,3.8-6.7
			c1.3-0.8,2.6-1,3.8-1c0.8,0,1.7,0.1,2.3,0.4c0.6,0.3,1.2,0.5,1.8,0.8c0.5,0.4,1,0.8,1.5,1.3c0.4,0.4,0.8,0.9,1,1.3
			c0.6,1.2,1,2.6,1,3.8C152.6,133.9,151.2,136.4,148.7,137.8z"/>
		<path class="st0" d="M89.2,155.5c0-0.5,0-1.2,0.1-1.7c0.1-0.6,0.3-1.3,0.4-1.9c-0.6-0.1-1.2-0.4-1.8-0.6c-3.7-1.4-7-3.2-10.2-5.4
			c-1.9-1.4-3.8-2.8-5.5-4.5c-0.5,0.5-0.9,0.9-1.4,1.3c-0.5,0.4-1,0.8-1.7,1.2c1.2,1.2,2.4,2.3,3.7,3.3c4.5,3.6,9.6,6.4,15.1,8.2
			c0.4,0.1,0.9,0.3,1.3,0.4C89.2,155.8,89.2,155.6,89.2,155.5z"/>
		<path class="st0" d="M101.9,140.9c-0.5-0.4-0.9-0.9-1.4-1.4c-7.3-7.3-20-21.9-25.1-39.7c-0.8-2.4-1.3-5-1.7-7.7
			c-0.9,1.3-2,2.6-3.2,3.5c0.3,1.4,0.6,2.8,1,4.2c1.4,5.5,3.6,10.6,6,15.4c0,0.1,0.1,0.3,0.1,0.3c5.2,10.1,12.2,18.4,17.4,24.1
			c0.9,1,1.8,1.9,2.6,2.7C99.1,141.5,100.5,141.2,101.9,140.9z"/>
		<path class="st0" d="M107.6,144.6c-0.8-0.3-1.4-0.4-2.2-0.5c-0.5,0-1-0.1-1.4-0.1c-0.5,0-1,0-1.4,0.1c-0.8,0.1-1.5,0.3-2.2,0.5
			c-3.7,1.3-6.7,4.4-7.6,8.2c-0.1,0.6-0.3,1.3-0.3,1.9c0,0.3,0,0.5,0,0.8c0,0.4,0,0.8,0.1,1.3c0.3,2.2,1,4.2,2.3,5.8
			c2,2.7,5.4,4.5,9.1,4.5c3.7,0,7-1.8,9.1-4.5c1.3-1.7,2.2-3.6,2.3-5.8c0-0.4,0.1-0.8,0.1-1.3c0-0.3,0-0.5,0-0.8
			c0-0.6-0.1-1.3-0.3-1.9C114.2,149,111.3,145.9,107.6,144.6z M111.6,155.5L111.6,155.5c0,0.8-0.1,1.4-0.3,2c-0.6,2.3-2.2,4.1-4.4,5
			c-0.9,0.4-1.9,0.6-3.1,0.6c-1,0-2.2-0.3-3.1-0.6c-2.2-0.9-3.7-2.8-4.4-5c-0.1-0.6-0.3-1.3-0.3-2l0,0c0-0.6,0.1-1.3,0.3-1.9
			c0.9-3.3,3.8-5.8,7.4-5.8s6.5,2.4,7.4,5.8C111.5,154.2,111.6,154.9,111.6,155.5z"/>
		<path class="st0" d="M71.4,72.8c0.5,0.4,0.9,0.9,1.4,1.4c1.5-1.4,3.2-2.7,4.9-4c3.2-2.2,6.5-4,10.2-5.4c0.6-0.3,1.4-0.5,2-0.8
			c-0.3-0.6-0.4-1.3-0.5-1.8c-0.1-0.6-0.3-1.3-0.3-1.9c-0.4,0.1-0.9,0.3-1.3,0.4c-4.9,1.7-9.3,4-13.4,6.9c-1.7,1.2-3.2,2.4-4.6,3.8
			C70.4,72,70.9,72.4,71.4,72.8z"/>
		<path class="st0" d="M59.8,95.2c0.6,0.1,1.3,0.1,1.9,0.1l0,0c3.1,0,6-1.3,8.2-3.5c0.6-0.6,1.3-1.4,1.8-2.3
			c0.9-1.7,1.4-3.3,1.5-5.1c0-0.3,0-0.4,0-0.6c0-2.7-1-5.2-2.7-7.4c-0.4-0.5-0.9-0.9-1.4-1.4c-0.5-0.4-1-0.8-1.5-1.2
			c0,0-0.1,0-0.1-0.1c-1.8-1-3.8-1.5-5.8-1.5c-4,0-7.8,2-10,5.8c-1,1.8-1.5,3.8-1.5,5.8c0,4,2,7.8,5.8,10c0,0,0.1,0,0.1,0.1
			c0.5,0.4,1.2,0.5,1.8,0.8C58.5,94.8,59.1,95.1,59.8,95.2z M65.5,77.2c0.4,0.3,0.8,0.5,1.2,0.8c0.5,0.4,0.9,0.9,1.3,1.4
			c0.9,1.3,1.4,2.8,1.4,4.5c0,1.3-0.4,2.6-1,3.8c-1.4,2.4-4,3.8-6.7,3.8c-0.3,0-0.5,0-0.8,0c-0.6,0-1.3-0.3-1.9-0.4
			c-0.4-0.1-0.8-0.4-1.3-0.5c-0.1-0.1-0.4-0.3-0.5-0.4c-2.2-1.4-3.3-3.8-3.3-6.3c0-1.3,0.4-2.6,1-3.8c1.4-2.4,4-3.8,6.7-3.8
			c1.2,0,2.2,0.3,3.3,0.8C65.1,77,65.4,77,65.5,77.2"/>
		<path class="st0" d="M152.2,96.6c-0.5,0.3-1,0.5-1.5,0.8c-0.6,0.3-1.2,0.5-1.8,0.6c0.1,0.6,0.3,1.3,0.4,1.8
			c0.5,2.7,0.8,5.5,0.8,8.3c0,2.4-0.1,4.7-0.5,7c-0.1,0.6-0.3,1.3-0.4,1.9c0.6,0.1,1.3,0.4,1.8,0.6c0.6,0.3,1.2,0.6,1.8,0.9
			c0.3-1.2,0.5-2.3,0.6-3.6c0.4-2.3,0.5-4.6,0.5-7c0-2.8-0.3-5.6-0.6-8.3c-0.3-1.2-0.4-2.3-0.6-3.3
			C152.4,96.5,152.3,96.5,152.2,96.6"/>
		<path class="st0" d="M150.1,92.9"/>
		<path class="st0" d="M132.3,99.8c-2.9,10.4-8.4,19.6-14,27c-4,5.2-7.9,9.6-11,12.7c-0.1,0.1-0.1,0.1-0.3,0.3
			c-0.4,0.4-0.8,0.8-1.3,1.2c1.5,0.3,2.9,0.6,4.2,1.3c0.8-0.8,1.7-1.7,2.6-2.7c4.9-5.1,11-12.5,16.1-21.6c0.5-0.9,1-1.8,1.4-2.7
			c2.4-4.7,4.6-9.9,6-15.4c0.3-1.2,0.6-2.3,0.8-3.5c-1.3-0.8-2.3-1.7-3.3-2.8C133.5,95.7,133,97.8,132.3,99.8z"/>
		<path class="st0" d="M150.6,93.8c0.4-0.1,0.6-0.4,0.9-0.6c3.1-2.2,4.9-5.8,4.9-9.3c0-1.9-0.5-4-1.5-5.8c-2.2-3.7-6-5.8-10-5.8
			c-1.7,0-3.5,0.4-5,1.2c-0.3,0.1-0.5,0.3-0.8,0.4c-0.4,0.3-0.6,0.4-1,0.6c-0.5,0.4-1,0.8-1.5,1.3c-2.2,2.2-3.3,5.1-3.3,8.1
			c0,1.7,0.4,3.3,1.2,4.9c0.1,0.3,0.3,0.6,0.5,0.9c0.8,1.3,1.8,2.4,2.9,3.3c2,1.5,4.5,2.4,7,2.4c1,0,2.2-0.1,3.2-0.5
			c0.6-0.1,1.2-0.4,1.8-0.6C150.1,94.1,150.4,93.9,150.6,93.8 M148.7,90.5L148.7,90.5C148.7,90.5,148.6,90.5,148.7,90.5
			c-0.8,0.4-1.3,0.6-1.9,0.9c-0.6,0.1-1.3,0.3-1.9,0.3c-2.6,0-5.1-1.3-6.5-3.6c0-0.1-0.1-0.1-0.1-0.3c-0.6-1-0.9-2-1-3.2
			c0-0.3,0-0.4,0-0.6c0-1.9,0.8-3.8,2-5.2c0.4-0.5,0.9-0.9,1.5-1.3c0.1,0,0.1-0.1,0.3-0.3c0.5-0.3,1-0.5,1.5-0.6
			c0.8-0.3,1.5-0.4,2.3-0.4c2.7,0,5.2,1.4,6.7,3.8c0.6,1.2,1,2.6,1,3.8c0,2-0.9,4.1-2.4,5.5C149.7,89.8,149.2,90.2,148.7,90.5z"/>
	</g>
</g>
</svg>
