<?xml version="1.0" encoding="utf-8"?>
<!-- Generator: Adobe Illustrator 21.0.0, SVG Export Plug-In . SVG Version: 6.00 Build 0)  -->
<svg version="1.1" id="Layer_1" xmlns="http://www.w3.org/2000/svg" xmlns:xlink="http://www.w3.org/1999/xlink" x="0px" y="0px"
	 viewBox="0 0 336 137" style="enable-background:new 0 0 336 137;" xml:space="preserve">
<style type="text/css">
	.st0{fill:#92CDDF;}
	.st1{fill:#E0E0E0;}
</style>
<g>
	<g>
		<path class="st0" d="M146.4,44c-0.7-1.5,1.8-2.5,2.5-1l9.1,18.2l8.9-18.1c0.6-1.5,3-0.7,2.5,0.9l-10.2,20.7
			c-0.5,0.9-1.8,1.1-2.4-0.1L146.4,44z"/>
		<path class="st0" d="M177.9,62.9h14c1.5,0,1.7,2.3,0,2.3h-15c-1,0-1.6-0.7-1.6-1.6V44.1c0-0.8,0.6-1.5,1.6-1.5h15
			c1.5,0,1.5,2.3,0,2.3h-14v8h13.4c1.4,0,1.5,2.3,0,2.3h-13.4V62.9z"/>
		<path class="st0" d="M215.9,64.3c-1.7,0.8-3.6,1.3-5.3,1.3c-6.1,0-11.6-5-11.6-12c0-5.8,4.2-10.5,9.6-11.3
			c4.2-0.6,7.8,0.5,10.6,3.4c1.1,1.2-0.9,2.7-1.8,1.6c-2.4-2.6-5.2-3-8.4-2.6c-4.4,0.7-7.5,3.8-7.5,8.9c0,5.4,4.2,9.5,9.1,9.5
			c1.3,0,2.8-0.4,4.1-1c1.1-0.6,2.2-1.4,2.9-2.4c0.8-1.2,3,0.1,2.1,1.4C218.8,62.5,217.4,63.6,215.9,64.3z"/>
		<path class="st0" d="M242.8,42.6c1.7,0,1.7,2.5,0,2.5h-7.9c0,6.4,0,12.9,0,19.3c0,0.9-0.7,1.3-1.4,1.3c-0.6,0-1.3-0.4-1.3-1.3V45
			h-7.9c-1.7,0-1.7-2.5,0-2.5H242.8z"/>
		<path class="st0" d="M246.6,53.5c0-5.6,3.8-10.3,9.4-11.2c1.3-0.2,2.5-0.1,3.8,0c5.5,0.9,9.7,5.4,9.7,11.2
			c0,7.4-5.3,12.1-11.4,12.1C251.8,65.6,246.6,61.1,246.6,53.5z M249.3,53.6c0,5.8,3.8,9.5,8.9,9.5c4.8,0,8.7-3.6,8.7-9.5
			c0-4.6-3-8.2-7.4-9c-1.1-0.1-2.1-0.1-3.1,0C252.1,45.3,249.3,48.8,249.3,53.6z"/>
		<path class="st0" d="M279.3,57.3v6.9c0,1.6-2.6,1.6-2.6,0V43.8c0-0.7,0.5-1.2,1.3-1.2h8.4c6.2,0,9.3,3.5,9.3,7.6
			c0,3.6-2,6.2-6.3,6.9l5.8,6.2c1.4,1.4-0.6,2.9-1.8,1.7l-7.2-7.8H279.3z M279.3,55.1h7.2c4.7,0,6.7-2.2,6.6-4.8
			c0-2.9-2.5-5.3-6.6-5.3h-7.2V55.1z"/>
	</g>
	<g>
		<path class="st0" d="M155.4,94.2c-4.7,0-8.3-3.8-8.3-8.6c0-4.1,2.9-7.5,6.9-8.1c0.5-0.1,1-0.1,1.5-0.1c2.4,0,4.5,0.9,6.1,2.6
			c0.3,0.3,0.3,0.7,0.2,1.1c-0.2,0.4-0.6,0.7-1,0.7c-0.3,0-0.5-0.1-0.7-0.3c-1.2-1.3-2.6-1.8-4.4-1.8c-0.4,0-0.8,0-1.3,0.1
			c-3.2,0.5-5.1,2.8-5.1,6.1c0,3.6,2.8,6.5,6.2,6.5c0.9,0,1.9-0.2,2.8-0.7c0.8-0.4,1.5-1,2-1.6c0.2-0.3,0.5-0.4,0.8-0.4
			c0.4,0,0.9,0.3,1.1,0.6c0.2,0.3,0.1,0.7-0.1,1c-0.7,0.9-1.6,1.7-2.8,2.3C158,93.9,156.6,94.2,155.4,94.2z"/>
		<path class="st0" d="M159.2,93.1c-1.2,0.5-2.5,0.9-3.7,0.9c-4.3,0-8.1-3.5-8.1-8.4c0-4.1,2.9-7.3,6.8-7.9c2.9-0.4,5.5,0.3,7.4,2.4
			c0.8,0.8-0.6,1.9-1.3,1.1c-1.7-1.8-3.7-2.1-5.9-1.8c-3.1,0.5-5.2,2.6-5.2,6.3c0,3.8,2.9,6.7,6.4,6.7c0.9,0,1.9-0.2,2.9-0.7
			c0.8-0.4,1.5-1,2-1.7c0.6-0.8,2.1,0.1,1.4,1C161.2,91.9,160.2,92.6,159.2,93.1z"/>
		<path class="st0" d="M178.9,94.2c-0.3,0-0.6-0.1-0.8-0.4l-5-5.4h-4.6V93c0,0.7-0.6,1.1-1.1,1.1c-0.3,0-0.6-0.1-0.8-0.3
			c-0.2-0.2-0.4-0.5-0.4-0.8V78.7c0-0.6,0.5-1.1,1.1-1.1h5.9c4.1,0,6.7,2.2,6.7,5.6c0,2.7-1.5,4.4-4.3,5l3.8,4.1
			c0.4,0.4,0.5,0.8,0.3,1.2C179.7,93.9,179.3,94.2,178.9,94.2z M173.3,86.4c1.7,0,2.9-0.4,3.7-1.2c0.5-0.5,0.8-1.2,0.8-2
			c0-2.1-1.8-3.5-4.4-3.5h-4.8v6.7H173.3z"/>
		<path class="st0" d="M168.3,88.2V93c0,1.1-1.8,1.1-1.8,0V78.7c0-0.5,0.4-0.9,0.9-0.9h5.9c4.3,0,6.5,2.4,6.5,5.4
			c0,2.5-1.4,4.3-4.4,4.9l4,4.4c0.9,1-0.4,2-1.2,1.2l-5-5.5H168.3z M168.3,86.6h5c3.3,0,4.7-1.5,4.6-3.4c0-2-1.7-3.7-4.6-3.7h-5
			V86.6z"/>
		<path class="st0" d="M185.6,94c-0.8,0-1.4-0.6-1.4-1.3V78.9c0-0.7,0.6-1.3,1.4-1.3h10.5c0.6,0,1,0.5,1,1c0,0.5-0.3,1-1,1h-9.7v5.2
			h9.2c0.6,0,1,0.5,1,1c0,0.5-0.3,1-1,1h-9.2v5h9.7c0.7,0,1,0.5,1,1.1c0,0.3-0.1,0.5-0.3,0.7c-0.1,0.1-0.4,0.3-0.8,0.3H185.6z"/>
		<path class="st0" d="M186.3,92.1h9.9c1,0,1.2,1.6,0,1.6h-10.5c-0.7,0-1.1-0.5-1.1-1.1V78.9c0-0.6,0.5-1.1,1.1-1.1h10.5
			c1.1,0,1,1.6,0,1.6h-9.9v5.6h9.4c1,0,1,1.6,0,1.6h-9.4V92.1z"/>
		<path class="st0" d="M201.1,94.1c-0.4,0-0.8-0.2-1-0.5c-0.2-0.3-0.2-0.6-0.1-0.9l7.6-14.9c0.2-0.4,0.6-0.6,1-0.6
			c0.4,0,0.8,0.2,1,0.6l7.5,14.8c0.2,0.3,0.2,0.7,0,0.9c-0.2,0.3-0.6,0.6-1.1,0.6c-0.5,0-0.8-0.2-1-0.6l-1.9-3.8H204l-2,3.8
			C201.8,93.9,201.5,94.1,201.1,94.1z M212.1,87.8l-3.6-7.2l-3.6,7.2H212.1z"/>
		<path class="st0" d="M203.8,89.6l-2,3.9c-0.5,0.9-2.1,0.3-1.6-0.7l7.5-14.9c0.2-0.3,0.5-0.5,0.8-0.5s0.6,0.1,0.8,0.5l7.5,14.8
			c0.6,1.1-1.2,1.7-1.7,0.7l-2-3.9H203.8z M208.5,80.1l-3.9,7.9h7.9L208.5,80.1z"/>
		<path class="st0" d="M226.2,94.3c-0.5,0-1.1-0.4-1.1-1.1V79.8h-5.3c-0.7,0-1.1-0.5-1.1-1.1c0-0.3,0.1-0.5,0.3-0.7
			c0.1-0.2,0.4-0.3,0.8-0.3h12.9c0.7,0,1.1,0.5,1.1,1.1s-0.4,1.1-1.1,1.1h-5.4c0,2.2,0,4.4,0,6.6c0,2.3,0,4.5,0,6.8
			C227.3,93.8,226.7,94.3,226.2,94.3z"/>
		<path class="st0" d="M232.7,77.8c1.2,0,1.2,1.7,0,1.7h-5.6c0,4.5,0,9.1,0,13.6c0,0.6-0.5,0.9-1,0.9s-0.9-0.3-0.9-0.9V79.6h-5.5
			c-1.2,0-1.2-1.7,0-1.7H232.7z"/>
		<path class="st0" d="M238.1,94.2c-0.5,0-1.1-0.3-1.1-1.1V78.2c0-0.7,0.6-1.1,1.1-1.1c0.6,0,1.1,0.4,1.1,1.1v14.9
			C239.2,93.8,238.6,94.2,238.1,94.2z"/>
		<path class="st0" d="M237.1,78.2c0-1.2,1.9-1.2,1.9,0v14.9c0,1.2-1.9,1.2-1.9,0V78.2z"/>
		<path class="st0" d="M251.5,94.2c-4.9,0-8.3-3.6-8.3-8.7c0-4.1,2.8-7.5,6.8-8.1c0.4-0.1,0.9-0.1,1.3-0.1c0.4,0,0.9,0,1.4,0.1
			c4.1,0.6,7,4,7,8.1C259.7,90.5,256.2,94.2,251.5,94.2z M251.4,79.4c-0.4,0-0.7,0-1,0.1c-2.9,0.5-4.8,2.9-4.8,6.1
			c0,3.8,2.5,6.5,6,6.5c3.5,0,5.9-2.7,5.9-6.5c0-3.1-2.1-5.6-5-6.1C252.1,79.5,251.7,79.4,251.4,79.4z"/>
		<path class="st0" d="M243.4,85.5c0-3.9,2.6-7.3,6.6-7.9c0.9-0.1,1.8-0.1,2.6,0c3.8,0.6,6.8,3.8,6.8,7.9c0,5.2-3.7,8.5-8,8.5
			C247,94,243.4,90.8,243.4,85.5z M245.3,85.6c0,4.1,2.7,6.7,6.2,6.7c3.4,0,6.1-2.5,6.1-6.7c0-3.2-2.1-5.8-5.2-6.3
			c-0.8-0.1-1.5-0.1-2.2,0C247.3,79.8,245.3,82.2,245.3,85.6z"/>
		<path class="st0" d="M265.4,94.2c-0.3,0-0.6-0.1-0.8-0.3c-0.2-0.2-0.4-0.5-0.4-0.8V78.7c0-0.9,0.6-1.3,1.2-1.3
			c0.5,0,0.9,0.2,1.2,0.7l9.2,12.3l-0.2-3.1l0-8.9c0-0.7,0.6-1,1.2-1c0.5,0,1.1,0.3,1.1,1v14.3c0,0.9-0.7,1.3-1.4,1.3
			c-0.5,0-1-0.3-1.3-0.7l-8.9-12l0.2,2.8l0,8.8C266.6,93.8,266,94.2,265.4,94.2z"/>
		<path class="st0" d="M275.9,78.5c0-1,1.9-1.1,1.9,0v14.3c0,1.2-1.7,1.4-2.2,0.5l-9.3-12.5l0.2,3.4v8.8c0,1.2-1.9,1.2-1.9,0V78.7
			c0-1.2,1.4-1.4,2-0.5l9.6,12.9l-0.2-3.8V78.5z"/>
		<path class="st0" d="M289.4,94.3c-2.9,0-6.6-1.1-7.5-4c-0.1-0.3,0-0.6,0.1-0.8c0.2-0.3,0.6-0.5,1.1-0.5c0.5,0,0.9,0.3,1,0.8
			c0.6,2.1,3.6,2.4,5.2,2.4c2.4,0,5.2-0.8,5.2-3c0-2-2.3-2.1-5-2.4l-0.1,0c-3.4-0.3-7.3-0.6-7.3-4.5c0-3.6,4.2-5,7-5
			c2.6,0,6,0.6,7.1,3.6c0.1,0.3,0.1,0.6-0.1,0.8c-0.2,0.3-0.6,0.5-1,0.5c-0.4,0-0.8-0.2-1-0.6c-0.7-1.7-3.1-2.1-5-2.1
			c-1.8,0-4.7,0.7-4.7,2.7c0,1.9,2,2.2,5.2,2.4l0.4,0c3.2,0.3,6.9,0.6,6.9,4.4C296.9,93,292.8,94.3,289.4,94.3z"/>
		<path class="st0" d="M283.9,89.8c0.6,2.1,3.4,2.5,5.4,2.5c2.1,0,5.4-0.6,5.4-3.2c0-2.2-2.6-2.3-5.4-2.6c-3.4-0.3-7.1-0.6-7.1-4.3
			c0-3.3,3.8-4.8,6.8-4.8c2.6,0,5.9,0.6,6.9,3.5c0.4,1-1.3,1.5-1.7,0.6c-0.8-1.9-3.4-2.2-5.2-2.2c-1.7,0-4.9,0.7-4.9,2.9
			c0,2.2,2.5,2.4,5.4,2.6c3.4,0.3,7.1,0.5,7.1,4.2c0,3.8-4.3,5-7.3,5c-2.5,0-6.4-0.9-7.3-3.9C281.8,89.2,283.7,88.8,283.9,89.8z"/>
	</g>
</g>
<g>
	<path class="st1" d="M91.8,32.7c-0.1,0.5-0.2,1-0.4,1.4c0.5,0.2,1.1,0.4,1.6,0.6c2.5,0.9,4.8,2.1,7,3.5c1.5,1,2.9,2,4.3,3.2
		c0.3-0.4,0.7-0.7,1.1-1c0.4-0.3,0.8-0.6,1.3-0.9c-1-0.9-2.1-1.8-3.2-2.6c-3.2-2.3-6.7-4.2-10.5-5.4c-0.3-0.1-0.7-0.2-1-0.3
		C91.9,31.7,91.9,32.2,91.8,32.7z"/>
	<path class="st1" d="M80.5,39.5c3.9,0,7.2-2.5,8.5-6c0.2-0.5,0.3-1,0.4-1.4c0.1-0.5,0.1-1,0.1-1.5c0,0,0,0,0-0.1
		c0-1.6-0.4-3.2-1.2-4.5c-1.6-2.7-4.5-4.5-7.8-4.5c-3.3,0-6.2,1.8-7.8,4.5c-0.8,1.3-1.2,2.9-1.2,4.5c0,0,0,0,0,0.1
		c0,0.5,0.1,1,0.1,1.5c0.1,0.5,0.2,1,0.4,1.4C73.3,37,76.6,39.5,80.5,39.5z M74.6,31.5c-0.1-0.3-0.1-0.6-0.1-1c0-0.2,0-0.4,0-0.5
		c0.1-1.6,0.9-3,2-4c1.1-0.9,2.4-1.5,4-1.5c1.5,0,2.9,0.6,4,1.5c1.1,1,1.9,2.4,2,4c0,0.2,0,0.4,0,0.5c0,0.3,0,0.7-0.1,1
		c-0.1,0.5-0.2,1-0.4,1.4c-0.9,2.1-3,3.6-5.5,3.6c-2.5,0-4.6-1.5-5.5-3.6C74.8,32.5,74.7,32,74.6,31.5z"/>
	<path class="st1" d="M43.7,75.7c0.5-0.2,1-0.3,1.5-0.4c-0.1-0.4-0.2-0.8-0.2-1.3c-0.3-1.8-0.4-3.6-0.4-5.5c0-2.2,0.2-4.4,0.6-6.5
		c0.1-0.4,0.2-0.8,0.2-1.2c-0.5-0.1-1-0.2-1.5-0.4c-0.5-0.2-0.9-0.4-1.4-0.6c-0.2,0.7-0.3,1.4-0.4,2.2c-0.4,2.1-0.5,4.3-0.5,6.5
		c0,1.9,0.1,3.7,0.4,5.5c0.1,0.8,0.2,1.5,0.4,2.3C42.7,76,43.2,75.8,43.7,75.7z"/>
	<path class="st1" d="M52,78.7L52,78.7c-1.4-0.8-3-1.2-4.5-1.2c-0.6,0-1.2,0.1-1.8,0.2c-0.5,0.1-1,0.2-1.4,0.4
		c-0.5,0.2-0.9,0.4-1.4,0.7c-1.3,0.8-2.4,1.8-3.2,3.2c-0.8,1.4-1.2,3-1.2,4.5c0,3.1,1.6,6.1,4.5,7.8c1.4,0.8,3,1.2,4.5,1.2
		c0,0,0,0,0,0c1.4,0,2.7-0.3,4-1c0.5-0.2,0.9-0.5,1.3-0.8c0.4-0.3,0.8-0.6,1.1-1c0.5-0.5,1-1.1,1.4-1.8c0.8-1.4,1.2-3,1.2-4.5
		C56.5,83.4,54.9,80.4,52,78.7z M50.5,81.3c1.9,1.1,3,3.1,3,5.2c0,1-0.3,2-0.8,3c-0.2,0.4-0.4,0.7-0.7,1c-0.3,0.4-0.7,0.7-1.1,1
		c-0.4,0.3-0.9,0.5-1.4,0.7c-0.6,0.2-1.3,0.4-2,0.4c-1,0-2-0.3-3-0.8c-1.9-1.1-3-3.1-3-5.2c0-1,0.3-2,0.8-3c0.4-0.7,0.9-1.3,1.5-1.7
		c0.4-0.3,0.9-0.6,1.3-0.8c0.5-0.2,0.9-0.3,1.4-0.4c0.3,0,0.6-0.1,0.9-0.1C48.5,80.5,49.6,80.8,50.5,81.3"/>
	<path class="st1" d="M106,96c-0.4-0.3-0.8-0.6-1.2-0.9c-1.5,1.4-3.1,2.6-4.8,3.7c-2.2,1.4-4.5,2.6-7,3.5c-0.4,0.2-0.9,0.3-1.4,0.5
		c0.1,0.5,0.2,1,0.3,1.5c0,0.4,0.1,0.8,0.1,1.3c0,0.1,0,0.2,0,0.3c0.3-0.1,0.7-0.2,1-0.3c4.3-1.5,8.3-3.7,11.8-6.4
		c0.9-0.7,1.7-1.5,2.6-2.2C106.9,96.5,106.4,96.3,106,96z"/>
	<path class="st1" d="M117,94.3C117,94.3,117,94.3,117,94.3c2.9-1.7,4.5-4.7,4.5-7.8c0-1.5-0.4-3.1-1.2-4.5c-0.6-1.1-1.4-2-2.3-2.7
		c-0.4-0.3-0.9-0.6-1.3-0.8c-0.4-0.2-0.9-0.4-1.4-0.6c-0.9-0.3-1.8-0.4-2.7-0.4c-1.5,0-3.1,0.4-4.5,1.2c-2.9,1.7-4.5,4.7-4.5,7.8
		c0,1.5,0.4,3.1,1.2,4.5c0.5,0.9,1.2,1.6,1.9,2.3c0.4,0.3,0.8,0.6,1.2,0.9c0.4,0.3,0.9,0.5,1.4,0.7c1,0.4,2.2,0.6,3.3,0.6
		c0,0,0,0,0,0C114,95.5,115.6,95.1,117,94.3L117,94.3 M115.5,91.7L115.5,91.7c-1,0.5-2,0.8-3,0.8c-0.4,0-0.8-0.1-1.2-0.1
		c-0.5-0.1-1-0.3-1.5-0.5c-0.4-0.2-0.9-0.5-1.3-0.8c-0.5-0.4-0.9-0.9-1.3-1.5c-0.6-1-0.8-2-0.8-3c0-2.1,1.1-4.1,3-5.2
		c1-0.6,2-0.8,3-0.8c0.6,0,1.3,0.1,1.8,0.3c0.5,0.2,0.9,0.4,1.4,0.6c0.4,0.3,0.8,0.6,1.2,1c0.3,0.3,0.6,0.7,0.8,1
		c0.5,0.9,0.8,2,0.8,3C118.5,88.6,117.4,90.6,115.5,91.7z"/>
	<path class="st1" d="M69,105.5c0-0.4,0-0.9,0.1-1.3c0.1-0.5,0.2-1,0.3-1.5c-0.5-0.1-0.9-0.3-1.4-0.5c-2.9-1.1-5.5-2.5-8-4.2
		c-1.5-1.1-3-2.2-4.3-3.5c-0.4,0.4-0.7,0.7-1.1,1c-0.4,0.3-0.8,0.6-1.3,0.9c0.9,0.9,1.9,1.8,2.9,2.6c3.5,2.8,7.5,5,11.8,6.4
		c0.3,0.1,0.7,0.2,1,0.3C69,105.7,69,105.6,69,105.5z"/>
	<path class="st0" d="M78.9,94.1c-0.4-0.3-0.7-0.7-1.1-1.1c-5.7-5.7-15.6-17.1-19.6-31c-0.6-1.9-1-3.9-1.3-6c-0.7,1-1.6,2-2.5,2.7
		c0.2,1.1,0.5,2.2,0.8,3.3c1.1,4.3,2.8,8.3,4.7,12c0,0.1,0.1,0.2,0.1,0.2c4.1,7.9,9.5,14.4,13.6,18.8c0.7,0.8,1.4,1.5,2,2.1
		C76.7,94.6,77.8,94.3,78.9,94.1z"/>
	<path class="st0" d="M83.4,97c-0.6-0.2-1.1-0.3-1.7-0.4c-0.4,0-0.8-0.1-1.1-0.1c-0.4,0-0.8,0-1.1,0.1c-0.6,0.1-1.2,0.2-1.7,0.4
		c-2.9,1-5.2,3.4-5.9,6.4c-0.1,0.5-0.2,1-0.2,1.5c0,0.2,0,0.4,0,0.6c0,0.3,0,0.6,0.1,1c0.2,1.7,0.8,3.3,1.8,4.5
		c1.6,2.1,4.2,3.5,7.1,3.5c2.9,0,5.5-1.4,7.1-3.5c1-1.3,1.7-2.8,1.8-4.5c0-0.3,0.1-0.6,0.1-1c0-0.2,0-0.4,0-0.6c0-0.5-0.1-1-0.2-1.5
		C88.5,100.4,86.3,98,83.4,97z M86.5,105.5C86.5,105.5,86.5,105.5,86.5,105.5c0,0.6-0.1,1.1-0.2,1.6c-0.5,1.8-1.7,3.2-3.4,3.9
		c-0.7,0.3-1.5,0.5-2.4,0.5c-0.8,0-1.7-0.2-2.4-0.5c-1.7-0.7-2.9-2.2-3.4-3.9c-0.1-0.5-0.2-1-0.2-1.6c0,0,0,0,0,0
		c0-0.5,0.1-1,0.2-1.5c0.7-2.6,3-4.5,5.8-4.5c2.8,0,5.1,1.9,5.8,4.5C86.4,104.5,86.5,105,86.5,105.5z"/>
	<path class="st1" d="M55.1,40.9c0.4,0.3,0.7,0.7,1.1,1.1c1.2-1.1,2.5-2.1,3.8-3.1c2.5-1.7,5.1-3.1,8-4.2c0.5-0.2,1.1-0.4,1.6-0.6
		c-0.2-0.5-0.3-1-0.4-1.4c-0.1-0.5-0.2-1-0.2-1.5c-0.3,0.1-0.7,0.2-1,0.3c-3.8,1.3-7.3,3.1-10.5,5.4c-1.3,0.9-2.5,1.9-3.6,3
		C54.3,40.3,54.7,40.6,55.1,40.9z"/>
	<path class="st0" d="M46,58.4c0.5,0.1,1,0.1,1.5,0.1c0,0,0,0,0,0c2.4,0,4.7-1,6.4-2.7c0.5-0.5,1-1.1,1.4-1.8c0.7-1.3,1.1-2.6,1.2-4
		c0-0.2,0-0.3,0-0.5c0-2.1-0.8-4.1-2.1-5.8c-0.3-0.4-0.7-0.7-1.1-1.1c-0.4-0.3-0.8-0.6-1.2-0.9c0,0-0.1,0-0.1-0.1
		c-1.4-0.8-3-1.2-4.5-1.2c-3.1,0-6.1,1.6-7.8,4.5c-0.8,1.4-1.2,3-1.2,4.5c0,3.1,1.6,6.1,4.5,7.8c0,0,0.1,0,0.1,0.1
		c0.4,0.3,0.9,0.4,1.4,0.6C45,58.1,45.5,58.3,46,58.4z M50.5,44.3c0.3,0.2,0.6,0.4,0.9,0.6c0.4,0.3,0.7,0.7,1,1.1
		c0.7,1,1.1,2.2,1.1,3.5c0,1-0.3,2-0.8,3c-1.1,1.9-3.1,3-5.2,3c-0.2,0-0.4,0-0.6,0c-0.5,0-1-0.2-1.5-0.3c-0.3-0.1-0.6-0.3-1-0.4
		c-0.1-0.1-0.3-0.2-0.4-0.3c-1.7-1.1-2.6-3-2.6-4.9c0-1,0.3-2,0.8-3c1.1-1.9,3.1-3,5.2-3c0.9,0,1.7,0.2,2.6,0.6
		C50.2,44.2,50.4,44.2,50.5,44.3"/>
	<path class="st1" d="M118.2,59.5c-0.4,0.2-0.8,0.4-1.2,0.6c-0.5,0.2-0.9,0.4-1.4,0.5c0.1,0.5,0.2,1,0.3,1.4
		c0.4,2.1,0.6,4.3,0.6,6.5c0,1.9-0.1,3.7-0.4,5.5c-0.1,0.5-0.2,1-0.3,1.5c0.5,0.1,1,0.3,1.4,0.5c0.5,0.2,0.9,0.5,1.4,0.7
		c0.2-0.9,0.4-1.8,0.5-2.8c0.3-1.8,0.4-3.6,0.4-5.5c0-2.2-0.2-4.4-0.5-6.5c-0.2-0.9-0.3-1.8-0.5-2.6
		C118.4,59.4,118.3,59.4,118.2,59.5"/>
	<path class="st1" d="M116.6,56.6"/>
	<path class="st0" d="M102.7,62c-2.3,8.1-6.6,15.3-10.9,21.1c-3.1,4.1-6.2,7.5-8.6,9.9c-0.1,0.1-0.1,0.1-0.2,0.2
		c-0.3,0.3-0.6,0.6-1,0.9c1.2,0.2,2.3,0.5,3.3,1c0.6-0.6,1.3-1.3,2-2.1c3.8-4,8.6-9.8,12.6-16.9c0.4-0.7,0.8-1.4,1.1-2.1
		c1.9-3.7,3.6-7.7,4.7-12c0.2-0.9,0.5-1.8,0.6-2.7c-1-0.6-1.8-1.3-2.6-2.2C103.6,58.8,103.2,60.4,102.7,62z"/>
	<path class="st0" d="M117,57.3c0.3-0.1,0.5-0.3,0.7-0.5c2.4-1.7,3.8-4.5,3.8-7.3c0-1.5-0.4-3.1-1.2-4.5c-1.7-2.9-4.7-4.5-7.8-4.5
		c-1.3,0-2.7,0.3-3.9,0.9c-0.2,0.1-0.4,0.2-0.6,0.3c-0.3,0.2-0.5,0.3-0.8,0.5c-0.4,0.3-0.8,0.6-1.2,1c-1.7,1.7-2.6,4-2.6,6.3
		c0,1.3,0.3,2.6,0.9,3.8c0.1,0.2,0.2,0.5,0.4,0.7c0.6,1,1.4,1.9,2.3,2.6c1.6,1.2,3.5,1.9,5.5,1.9c0.8,0,1.7-0.1,2.5-0.4
		c0.5-0.1,0.9-0.3,1.4-0.5C116.6,57.5,116.8,57.4,117,57.3 M115.5,54.7L115.5,54.7c0,0-0.1,0-0.1,0.1c-0.5,0.2-0.9,0.4-1.4,0.6
		c-0.5,0.1-1,0.2-1.5,0.2c-2,0-4-1-5.1-2.8c0-0.1-0.1-0.1-0.1-0.2c-0.5-0.8-0.7-1.6-0.8-2.5c0-0.2,0-0.3,0-0.5c0-1.5,0.6-3,1.6-4.1
		c0.3-0.4,0.7-0.7,1.2-1c0.1,0,0.1-0.1,0.2-0.2c0.4-0.2,0.8-0.4,1.2-0.5c0.6-0.2,1.2-0.3,1.8-0.3c2.1,0,4.1,1.1,5.2,3
		c0.5,0.9,0.8,2,0.8,3c0,1.6-0.7,3.2-1.9,4.3C116.3,54.2,115.9,54.5,115.5,54.7z"/>
</g>
</svg>
