<?xml version="1.0" encoding="utf-8"?>
<!-- Generator: Adobe Illustrator 21.0.0, SVG Export Plug-In . SVG Version: 6.00 Build 0)  -->
<svg version="1.1" id="Layer_1" xmlns="http://www.w3.org/2000/svg" xmlns:xlink="http://www.w3.org/1999/xlink" x="0px" y="0px"
	 viewBox="0 0 336 137" style="enable-background:new 0 0 336 137;" xml:space="preserve">
<style type="text/css">
	.st0{fill:#FFFFFF;}
</style>
<g>
	<g>
		<path class="st0" d="M147.6,55.4c-0.7-1.6,1.9-2.7,2.7-1.1l9.7,19.4l9.5-19.3c0.6-1.6,3.2-0.7,2.7,1l-10.9,22
			c-0.5,1-1.9,1.2-2.6-0.1L147.6,55.4z"/>
		<path class="st0" d="M181.1,75.5H196c1.6,0,1.8,2.4,0,2.4h-16c-1.1,0-1.7-0.7-1.7-1.7V55.5c0-0.9,0.6-1.6,1.7-1.6h16
			c1.6,0,1.6,2.4,0,2.4h-14.9v8.5h14.3c1.5,0,1.6,2.4,0,2.4h-14.3V75.5z"/>
		<path class="st0" d="M221.6,77c-1.8,0.9-3.8,1.4-5.6,1.4c-6.5,0-12.3-5.3-12.3-12.8c0-6.2,4.5-11.2,10.2-12
			c4.5-0.6,8.3,0.5,11.3,3.6c1.2,1.3-1,2.9-1.9,1.7c-2.6-2.8-5.5-3.2-8.9-2.8c-4.7,0.7-8,4-8,9.5c0,5.7,4.5,10.1,9.7,10.1
			c1.4,0,3-0.4,4.4-1.1c1.2-0.6,2.3-1.5,3.1-2.6c0.9-1.3,3.2,0.1,2.2,1.5C224.7,75,223.2,76.2,221.6,77z"/>
		<path class="st0" d="M250.2,53.9c1.8,0,1.8,2.7,0,2.7h-8.4c0,6.8,0,13.7,0,20.5c0,1-0.7,1.4-1.5,1.4c-0.6,0-1.4-0.4-1.4-1.4V56.4
			h-8.4c-1.8,0-1.8-2.7,0-2.7h19.7V53.9z"/>
		<path class="st0" d="M254.2,65.5c0-6,4-11,10-11.9c1.4-0.2,2.7-0.1,4,0c5.9,1,10.3,5.7,10.3,11.9c0,7.9-5.6,12.9-12.1,12.9
			C259.8,78.3,254.2,73.6,254.2,65.5z M257.1,65.6c0,6.2,4,10.1,9.5,10.1c5.1,0,9.3-3.8,9.3-10.1c0-4.9-3.2-8.7-7.9-9.6
			c-1.2-0.1-2.2-0.1-3.3,0C260.1,56.7,257.1,60.5,257.1,65.6z"/>
		<path class="st0" d="M289,69.5v7.3c0,1.7-2.8,1.7-2.8,0V55.2c0-0.7,0.5-1.3,1.4-1.3h8.9c6.6,0,9.9,3.7,9.9,8.1
			c0,3.8-2.1,6.6-6.7,7.3l6.2,6.6c1.5,1.5-0.6,3.1-1.9,1.8l-7.7-8.3H289V69.5z M289,67.2h7.7c5,0,7.1-2.3,7-5.1c0-3.1-2.7-5.6-7-5.6
			H289V67.2z"/>
	</g>
</g>
<g>
	<path class="st0" d="M91.8,32.7c-0.1,0.5-0.2,1-0.4,1.4c0.5,0.2,1.1,0.4,1.6,0.6c2.5,0.9,4.8,2.1,7,3.5c1.5,1,2.9,2,4.3,3.2
		c0.3-0.4,0.7-0.7,1.1-1s0.8-0.6,1.3-0.9c-1-0.9-2.1-1.8-3.2-2.6c-3.2-2.3-6.7-4.2-10.5-5.4c-0.3-0.1-0.7-0.2-1-0.3
		C91.9,31.7,91.9,32.2,91.8,32.7z"/>
	<path class="st0" d="M80.5,39.5c3.9,0,7.2-2.5,8.5-6c0.2-0.5,0.3-1,0.4-1.4c0.1-0.5,0.1-1,0.1-1.5c0,0,0,0,0-0.1
		c0-1.6-0.4-3.2-1.2-4.5c-1.6-2.7-4.5-4.5-7.8-4.5s-6.2,1.8-7.8,4.5c-0.8,1.3-1.2,2.9-1.2,4.5c0,0,0,0,0,0.1c0,0.5,0.1,1,0.1,1.5
		c0.1,0.5,0.2,1,0.4,1.4C73.3,37,76.6,39.5,80.5,39.5z M74.6,31.5c-0.1-0.3-0.1-0.6-0.1-1c0-0.2,0-0.4,0-0.5c0.1-1.6,0.9-3,2-4
		c1.1-0.9,2.4-1.5,4-1.5c1.5,0,2.9,0.6,4,1.5c1.1,1,1.9,2.4,2,4c0,0.2,0,0.4,0,0.5c0,0.3,0,0.7-0.1,1c-0.1,0.5-0.2,1-0.4,1.4
		c-0.9,2.1-3,3.6-5.5,3.6S75.9,35,75,32.9C74.8,32.5,74.7,32,74.6,31.5z"/>
	<path class="st0" d="M43.7,75.7c0.5-0.2,1-0.3,1.5-0.4C45.1,74.9,45,74.5,45,74c-0.3-1.8-0.4-3.6-0.4-5.5c0-2.2,0.2-4.4,0.6-6.5
		c0.1-0.4,0.2-0.8,0.2-1.2c-0.5-0.1-1-0.2-1.5-0.4S43,60,42.5,59.8c-0.2,0.7-0.3,1.4-0.4,2.2c-0.4,2.1-0.5,4.3-0.5,6.5
		c0,1.9,0.1,3.7,0.4,5.5c0.1,0.8,0.2,1.5,0.4,2.3C42.7,76,43.2,75.8,43.7,75.7z"/>
	<path class="st0" d="M52,78.7L52,78.7c-1.4-0.8-3-1.2-4.5-1.2c-0.6,0-1.2,0.1-1.8,0.2c-0.5,0.1-1,0.2-1.4,0.4
		c-0.5,0.2-0.9,0.4-1.4,0.7c-1.3,0.8-2.4,1.8-3.2,3.2c-0.8,1.4-1.2,3-1.2,4.5c0,3.1,1.6,6.1,4.5,7.8c1.4,0.8,3,1.2,4.5,1.2l0,0
		c1.4,0,2.7-0.3,4-1c0.5-0.2,0.9-0.5,1.3-0.8c0.4-0.3,0.8-0.6,1.1-1c0.5-0.5,1-1.1,1.4-1.8c0.8-1.4,1.2-3,1.2-4.5
		C56.5,83.4,54.9,80.4,52,78.7z M50.5,81.3c1.9,1.1,3,3.1,3,5.2c0,1-0.3,2-0.8,3c-0.2,0.4-0.4,0.7-0.7,1c-0.3,0.4-0.7,0.7-1.1,1
		c-0.4,0.3-0.9,0.5-1.4,0.7c-0.6,0.2-1.3,0.4-2,0.4c-1,0-2-0.3-3-0.8c-1.9-1.1-3-3.1-3-5.2c0-1,0.3-2,0.8-3c0.4-0.7,0.9-1.3,1.5-1.7
		c0.4-0.3,0.9-0.6,1.3-0.8c0.5-0.2,0.9-0.3,1.4-0.4c0.3,0,0.6-0.1,0.9-0.1C48.5,80.5,49.6,80.8,50.5,81.3"/>
	<path class="st0" d="M106,96c-0.4-0.3-0.8-0.6-1.2-0.9c-1.5,1.4-3.1,2.6-4.8,3.7c-2.2,1.4-4.5,2.6-7,3.5c-0.4,0.2-0.9,0.3-1.4,0.5
		c0.1,0.5,0.2,1,0.3,1.5c0,0.4,0.1,0.8,0.1,1.3c0,0.1,0,0.2,0,0.3c0.3-0.1,0.7-0.2,1-0.3c4.3-1.5,8.3-3.7,11.8-6.4
		c0.9-0.7,1.7-1.5,2.6-2.2C106.9,96.5,106.4,96.3,106,96z"/>
	<path class="st0" d="M117,94.3L117,94.3c2.9-1.7,4.5-4.7,4.5-7.8c0-1.5-0.4-3.1-1.2-4.5c-0.6-1.1-1.4-2-2.3-2.7
		c-0.4-0.3-0.9-0.6-1.3-0.8c-0.4-0.2-0.9-0.4-1.4-0.6c-0.9-0.3-1.8-0.4-2.7-0.4c-1.5,0-3.1,0.4-4.5,1.2c-2.9,1.7-4.5,4.7-4.5,7.8
		c0,1.5,0.4,3.1,1.2,4.5c0.5,0.9,1.2,1.6,1.9,2.3c0.4,0.3,0.8,0.6,1.2,0.9c0.4,0.3,0.9,0.5,1.4,0.7c1,0.4,2.2,0.6,3.3,0.6l0,0
		C114,95.5,115.6,95.1,117,94.3L117,94.3 M115.5,91.7L115.5,91.7c-1,0.5-2,0.8-3,0.8c-0.4,0-0.8-0.1-1.2-0.1c-0.5-0.1-1-0.3-1.5-0.5
		c-0.4-0.2-0.9-0.5-1.3-0.8c-0.5-0.4-0.9-0.9-1.3-1.5c-0.6-1-0.8-2-0.8-3c0-2.1,1.1-4.1,3-5.2c1-0.6,2-0.8,3-0.8
		c0.6,0,1.3,0.1,1.8,0.3c0.5,0.2,0.9,0.4,1.4,0.6c0.4,0.3,0.8,0.6,1.2,1c0.3,0.3,0.6,0.7,0.8,1c0.5,0.9,0.8,2,0.8,3
		C118.5,88.6,117.4,90.6,115.5,91.7z"/>
	<path class="st0" d="M69,105.5c0-0.4,0-0.9,0.1-1.3c0.1-0.5,0.2-1,0.3-1.5c-0.5-0.1-0.9-0.3-1.4-0.5c-2.9-1.1-5.5-2.5-8-4.2
		c-1.5-1.1-3-2.2-4.3-3.5c-0.4,0.4-0.7,0.7-1.1,1c-0.4,0.3-0.8,0.6-1.3,0.9c0.9,0.9,1.9,1.8,2.9,2.6c3.5,2.8,7.5,5,11.8,6.4
		c0.3,0.1,0.7,0.2,1,0.3C69,105.7,69,105.6,69,105.5z"/>
	<path class="st0" d="M78.9,94.1c-0.4-0.3-0.7-0.7-1.1-1.1c-5.7-5.7-15.6-17.1-19.6-31c-0.6-1.9-1-3.9-1.3-6c-0.7,1-1.6,2-2.5,2.7
		c0.2,1.1,0.5,2.2,0.8,3.3c1.1,4.3,2.8,8.3,4.7,12c0,0.1,0.1,0.2,0.1,0.2c4.1,7.9,9.5,14.4,13.6,18.8c0.7,0.8,1.4,1.5,2,2.1
		C76.7,94.6,77.8,94.3,78.9,94.1z"/>
	<path class="st0" d="M83.4,97c-0.6-0.2-1.1-0.3-1.7-0.4c-0.4,0-0.8-0.1-1.1-0.1c-0.4,0-0.8,0-1.1,0.1c-0.6,0.1-1.2,0.2-1.7,0.4
		c-2.9,1-5.2,3.4-5.9,6.4c-0.1,0.5-0.2,1-0.2,1.5c0,0.2,0,0.4,0,0.6c0,0.3,0,0.6,0.1,1c0.2,1.7,0.8,3.3,1.8,4.5
		c1.6,2.1,4.2,3.5,7.1,3.5s5.5-1.4,7.1-3.5c1-1.3,1.7-2.8,1.8-4.5c0-0.3,0.1-0.6,0.1-1c0-0.2,0-0.4,0-0.6c0-0.5-0.1-1-0.2-1.5
		C88.5,100.4,86.3,98,83.4,97z M86.5,105.5L86.5,105.5c0,0.6-0.1,1.1-0.2,1.6c-0.5,1.8-1.7,3.2-3.4,3.9c-0.7,0.3-1.5,0.5-2.4,0.5
		c-0.8,0-1.7-0.2-2.4-0.5c-1.7-0.7-2.9-2.2-3.4-3.9c-0.1-0.5-0.2-1-0.2-1.6l0,0c0-0.5,0.1-1,0.2-1.5c0.7-2.6,3-4.5,5.8-4.5
		s5.1,1.9,5.8,4.5C86.4,104.5,86.5,105,86.5,105.5z"/>
	<path class="st0" d="M55.1,40.9c0.4,0.3,0.7,0.7,1.1,1.1c1.2-1.1,2.5-2.1,3.8-3.1c2.5-1.7,5.1-3.1,8-4.2c0.5-0.2,1.1-0.4,1.6-0.6
		c-0.2-0.5-0.3-1-0.4-1.4c-0.1-0.5-0.2-1-0.2-1.5c-0.3,0.1-0.7,0.2-1,0.3c-3.8,1.3-7.3,3.1-10.5,5.4c-1.3,0.9-2.5,1.9-3.6,3
		C54.3,40.3,54.7,40.6,55.1,40.9z"/>
	<path class="st0" d="M46,58.4c0.5,0.1,1,0.1,1.5,0.1l0,0c2.4,0,4.7-1,6.4-2.7c0.5-0.5,1-1.1,1.4-1.8c0.7-1.3,1.1-2.6,1.2-4
		c0-0.2,0-0.3,0-0.5c0-2.1-0.8-4.1-2.1-5.8c-0.3-0.4-0.7-0.7-1.1-1.1c-0.4-0.3-0.8-0.6-1.2-0.9c0,0-0.1,0-0.1-0.1
		c-1.4-0.8-3-1.2-4.5-1.2c-3.1,0-6.1,1.6-7.8,4.5c-0.8,1.4-1.2,3-1.2,4.5c0,3.1,1.6,6.1,4.5,7.8c0,0,0.1,0,0.1,0.1
		c0.4,0.3,0.9,0.4,1.4,0.6C45,58.1,45.5,58.3,46,58.4z M50.5,44.3c0.3,0.2,0.6,0.4,0.9,0.6c0.4,0.3,0.7,0.7,1,1.1
		c0.7,1,1.1,2.2,1.1,3.5c0,1-0.3,2-0.8,3c-1.1,1.9-3.1,3-5.2,3c-0.2,0-0.4,0-0.6,0c-0.5,0-1-0.2-1.5-0.3c-0.3-0.1-0.6-0.3-1-0.4
		c-0.1-0.1-0.3-0.2-0.4-0.3c-1.7-1.1-2.6-3-2.6-4.9c0-1,0.3-2,0.8-3c1.1-1.9,3.1-3,5.2-3c0.9,0,1.7,0.2,2.6,0.6
		C50.2,44.2,50.4,44.2,50.5,44.3"/>
	<path class="st0" d="M118.2,59.5c-0.4,0.2-0.8,0.4-1.2,0.6c-0.5,0.2-0.9,0.4-1.4,0.5c0.1,0.5,0.2,1,0.3,1.4
		c0.4,2.1,0.6,4.3,0.6,6.5c0,1.9-0.1,3.7-0.4,5.5c-0.1,0.5-0.2,1-0.3,1.5c0.5,0.1,1,0.3,1.4,0.5c0.5,0.2,0.9,0.5,1.4,0.7
		c0.2-0.9,0.4-1.8,0.5-2.8c0.3-1.8,0.4-3.6,0.4-5.5c0-2.2-0.2-4.4-0.5-6.5c-0.2-0.9-0.3-1.8-0.5-2.6
		C118.4,59.4,118.3,59.4,118.2,59.5"/>
	<path class="st0" d="M116.6,56.6"/>
	<path class="st0" d="M102.7,62c-2.3,8.1-6.6,15.3-10.9,21.1c-3.1,4.1-6.2,7.5-8.6,9.9c-0.1,0.1-0.1,0.1-0.2,0.2
		c-0.3,0.3-0.6,0.6-1,0.9c1.2,0.2,2.3,0.5,3.3,1c0.6-0.6,1.3-1.3,2-2.1c3.8-4,8.6-9.8,12.6-16.9c0.4-0.7,0.8-1.4,1.1-2.1
		c1.9-3.7,3.6-7.7,4.7-12c0.2-0.9,0.5-1.8,0.6-2.7c-1-0.6-1.8-1.3-2.6-2.2C103.6,58.8,103.2,60.4,102.7,62z"/>
	<path class="st0" d="M117,57.3c0.3-0.1,0.5-0.3,0.7-0.5c2.4-1.7,3.8-4.5,3.8-7.3c0-1.5-0.4-3.1-1.2-4.5c-1.7-2.9-4.7-4.5-7.8-4.5
		c-1.3,0-2.7,0.3-3.9,0.9c-0.2,0.1-0.4,0.2-0.6,0.3c-0.3,0.2-0.5,0.3-0.8,0.5c-0.4,0.3-0.8,0.6-1.2,1c-1.7,1.7-2.6,4-2.6,6.3
		c0,1.3,0.3,2.6,0.9,3.8c0.1,0.2,0.2,0.5,0.4,0.7c0.6,1,1.4,1.9,2.3,2.6c1.6,1.2,3.5,1.9,5.5,1.9c0.8,0,1.7-0.1,2.5-0.4
		c0.5-0.1,0.9-0.3,1.4-0.5C116.6,57.5,116.8,57.4,117,57.3 M115.5,54.7L115.5,54.7C115.5,54.7,115.4,54.7,115.5,54.7
		c-0.6,0.3-1,0.5-1.5,0.7c-0.5,0.1-1,0.2-1.5,0.2c-2,0-4-1-5.1-2.8c0-0.1-0.1-0.1-0.1-0.2c-0.5-0.8-0.7-1.6-0.8-2.5
		c0-0.2,0-0.3,0-0.5c0-1.5,0.6-3,1.6-4.1c0.3-0.4,0.7-0.7,1.2-1c0.1,0,0.1-0.1,0.2-0.2c0.4-0.2,0.8-0.4,1.2-0.5
		c0.6-0.2,1.2-0.3,1.8-0.3c2.1,0,4.1,1.1,5.2,3c0.5,0.9,0.8,2,0.8,3c0,1.6-0.7,3.2-1.9,4.3C116.3,54.2,115.9,54.5,115.5,54.7z"/>
</g>
</svg>
