<?xml version="1.0" encoding="utf-8"?>
<!-- Generator: Adobe Illustrator 21.0.0, SVG Export Plug-In . SVG Version: 6.00 Build 0)  -->
<svg version="1.1" id="Layer_1" xmlns="http://www.w3.org/2000/svg" xmlns:xlink="http://www.w3.org/1999/xlink" x="0px" y="0px"
	 viewBox="0 0 108 108" style="enable-background:new 0 0 108 108;" xml:space="preserve">
<style type="text/css">
	.st0{fill:#E0E0E0;}
	.st1{fill:#FFFFFF;}
	.st2{fill:#67CB9C;}
	.st3{fill:#77CEA5;}
</style>
<g>
	<path class="st0" d="M65.7,18.7c-0.1,0.5-0.2,1-0.4,1.4c0.5,0.2,1.1,0.4,1.6,0.6c2.5,0.9,4.8,2.1,7,3.5c1.5,1,2.9,2,4.3,3.2
		c0.3-0.4,0.7-0.7,1.1-1c0.4-0.3,0.8-0.6,1.3-0.9c-1-0.9-2.1-1.8-3.2-2.6c-3.2-2.3-6.7-4.2-10.5-5.4c-0.3-0.1-0.7-0.2-1-0.3
		C65.9,17.7,65.8,18.2,65.7,18.7z"/>
	<path class="st1" d="M54.5,22.5c2.5,0,4.6-1.5,5.5-3.6c0.2-0.5,0.3-0.9,0.4-1.4c0.1-0.3,0.1-0.6,0.1-1c0-0.2,0-0.4,0-0.5
		c-0.1-1.6-0.9-3-2-4c-1.1-0.9-2.4-1.5-4-1.5c-1.5,0-2.9,0.6-4,1.5c-1.1,1-1.9,2.4-2,4c0,0.2,0,0.4,0,0.5c0,0.3,0,0.7,0.1,1
		c0.1,0.5,0.2,1,0.4,1.4C49.9,21,52,22.5,54.5,22.5z"/>
	<path class="st0" d="M54.5,25.5c3.9,0,7.2-2.5,8.5-6c0.2-0.5,0.3-1,0.4-1.4c0.1-0.5,0.1-1,0.1-1.5c0,0,0,0,0-0.1
		c0-1.6-0.4-3.2-1.2-4.5c-1.6-2.7-4.5-4.5-7.8-4.5c-3.3,0-6.2,1.8-7.8,4.5c-0.8,1.3-1.2,2.9-1.2,4.5c0,0,0,0,0,0.1
		c0,0.5,0.1,1,0.1,1.5c0.1,0.5,0.2,1,0.4,1.4C47.2,23,50.5,25.5,54.5,25.5z M48.5,17.5c-0.1-0.3-0.1-0.6-0.1-1c0-0.2,0-0.4,0-0.5
		c0.1-1.6,0.9-3,2-4c1.1-0.9,2.4-1.5,4-1.5c1.5,0,2.9,0.6,4,1.5c1.1,1,1.9,2.4,2,4c0,0.2,0,0.4,0,0.5c0,0.3,0,0.7-0.1,1
		c-0.1,0.5-0.2,1-0.4,1.4c-0.9,2.1-3,3.6-5.5,3.6c-2.5,0-4.6-1.5-5.5-3.6C48.8,18.5,48.6,18,48.5,17.5z"/>
	<path class="st0" d="M17.7,61.7c0.5-0.2,1-0.3,1.5-0.4c-0.1-0.4-0.2-0.8-0.2-1.3c-0.3-1.8-0.4-3.6-0.4-5.5c0-2.2,0.2-4.4,0.6-6.5
		c0.1-0.4,0.2-0.8,0.2-1.2c-0.5-0.1-1-0.2-1.5-0.4c-0.5-0.2-0.9-0.4-1.4-0.6c-0.2,0.7-0.3,1.4-0.4,2.2c-0.4,2.1-0.5,4.3-0.5,6.5
		c0,1.9,0.1,3.7,0.4,5.5c0.1,0.8,0.2,1.5,0.4,2.3C16.7,62,17.2,61.8,17.7,61.7z"/>
	<path class="st1" d="M24.5,67.3l0.7-1.3l-0.1,0.2L25,66.4L24.5,67.3c-1-0.5-2-0.8-3-0.8c-0.3,0-0.6,0-0.9,0.1
		c-0.5,0.1-1,0.2-1.4,0.4c-0.5,0.2-0.9,0.5-1.3,0.8c-0.6,0.5-1.1,1-1.5,1.7c-0.5,0.9-0.8,2-0.8,3c0,2.1,1.1,4.1,3,5.2
		c1,0.5,2,0.8,3,0.8c0.7,0,1.4-0.1,2-0.4c0.5-0.2,0.9-0.4,1.4-0.7c0.4-0.3,0.8-0.6,1.1-1c0.3-0.3,0.5-0.6,0.7-1c0.5-1,0.8-2,0.8-3
		C27.5,70.4,26.4,68.4,24.5,67.3z"/>
	<path class="st0" d="M26,64.7L26,64.7c-1.4-0.8-3-1.2-4.5-1.2c-0.6,0-1.2,0.1-1.8,0.2c-0.5,0.1-1,0.2-1.4,0.4
		c-0.5,0.2-0.9,0.4-1.4,0.7c-1.3,0.8-2.4,1.8-3.2,3.2c-0.8,1.4-1.2,3-1.2,4.5c0,3.1,1.6,6.1,4.5,7.8c1.4,0.8,3,1.2,4.5,1.2
		c0,0,0,0,0,0c1.4,0,2.7-0.3,4-1c0.5-0.2,0.9-0.5,1.3-0.8c0.4-0.3,0.8-0.6,1.1-1c0.5-0.5,1-1.1,1.4-1.8c0.8-1.4,1.2-3,1.2-4.5
		C30.5,69.4,28.8,66.4,26,64.7z M24.5,67.3c1.9,1.1,3,3.1,3,5.2c0,1-0.3,2-0.8,3c-0.2,0.4-0.4,0.7-0.7,1c-0.3,0.4-0.7,0.7-1.1,1
		c-0.4,0.3-0.9,0.5-1.4,0.7c-0.6,0.2-1.3,0.4-2,0.4c-1,0-2-0.3-3-0.8c-1.9-1.1-3-3.1-3-5.2c0-1,0.3-2,0.8-3c0.4-0.7,0.9-1.3,1.5-1.7
		c0.4-0.3,0.9-0.6,1.3-0.8c0.5-0.2,0.9-0.3,1.4-0.4c0.3,0,0.6-0.1,0.9-0.1C22.5,66.5,23.5,66.8,24.5,67.3"/>
	<path class="st0" d="M80,82c-0.4-0.3-0.8-0.6-1.2-0.9c-1.5,1.4-3.1,2.6-4.8,3.7c-2.2,1.4-4.5,2.6-7,3.5c-0.4,0.2-0.9,0.3-1.4,0.5
		c0.1,0.5,0.2,1,0.3,1.5c0,0.4,0.1,0.8,0.1,1.3c0,0.1,0,0.2,0,0.3c0.3-0.1,0.7-0.2,1-0.3c4.3-1.5,8.3-3.7,11.8-6.4
		c0.9-0.7,1.7-1.5,2.6-2.2C80.9,82.5,80.4,82.3,80,82z"/>
	<path class="st1" d="M92.5,72.5c0-1-0.3-2-0.8-3c-0.2-0.4-0.5-0.7-0.8-1c-0.4-0.4-0.8-0.7-1.2-1c-0.4-0.3-0.9-0.5-1.4-0.6
		c-0.6-0.2-1.2-0.3-1.8-0.3c-1,0-2,0.3-3,0.8c-1.9,1.1-3,3.1-3,5.2c0,1,0.3,2,0.8,3c0.3,0.6,0.8,1.1,1.3,1.5
		c0.4,0.3,0.8,0.6,1.3,0.8c0.5,0.2,1,0.4,1.5,0.5c0.4,0.1,0.8,0.1,1.2,0.1c1,0,2-0.3,3-0.8l0,0C91.4,76.6,92.5,74.6,92.5,72.5z"/>
	<path class="st0" d="M91,80.3C91,80.3,91,80.3,91,80.3c2.9-1.7,4.5-4.7,4.5-7.8c0-1.5-0.4-3.1-1.2-4.5c-0.6-1.1-1.4-2-2.3-2.7
		c-0.4-0.3-0.9-0.6-1.3-0.8c-0.4-0.2-0.9-0.4-1.4-0.6c-0.9-0.3-1.8-0.4-2.7-0.4c-1.5,0-3.1,0.4-4.5,1.2c-2.9,1.7-4.5,4.7-4.5,7.8
		c0,1.5,0.4,3.1,1.2,4.5c0.5,0.9,1.2,1.6,1.9,2.3c0.4,0.3,0.8,0.6,1.2,0.9c0.4,0.3,0.9,0.5,1.4,0.7c1,0.4,2.2,0.6,3.3,0.6
		c0,0,0,0,0,0C88,81.5,89.5,81.1,91,80.3L91,80.3 M89.5,77.7L89.5,77.7c-1,0.5-2,0.8-3,0.8c-0.4,0-0.8-0.1-1.2-0.1
		c-0.5-0.1-1-0.3-1.5-0.5c-0.4-0.2-0.9-0.5-1.3-0.8c-0.5-0.4-0.9-0.9-1.3-1.5c-0.6-1-0.8-2-0.8-3c0-2.1,1.1-4.1,3-5.2
		c1-0.6,2-0.8,3-0.8c0.6,0,1.3,0.1,1.8,0.3c0.5,0.2,0.9,0.4,1.4,0.6c0.4,0.3,0.8,0.6,1.2,1c0.3,0.3,0.6,0.7,0.8,1
		c0.5,0.9,0.8,2,0.8,3C92.5,74.6,91.4,76.6,89.5,77.7z"/>
	<path class="st0" d="M43,91.5c0-0.4,0-0.9,0.1-1.3c0.1-0.5,0.2-1,0.3-1.5c-0.5-0.1-0.9-0.3-1.4-0.5c-2.9-1.1-5.5-2.5-8-4.2
		c-1.5-1.1-3-2.2-4.3-3.5c-0.4,0.4-0.7,0.7-1.1,1c-0.4,0.3-0.8,0.6-1.3,0.9c0.9,0.9,1.9,1.8,2.9,2.6c3.5,2.8,7.5,5,11.8,6.4
		c0.3,0.1,0.7,0.2,1,0.3C43,91.7,43,91.6,43,91.5z"/>
	<path class="st2" d="M52.9,80.1c-0.4-0.3-0.7-0.7-1.1-1.1c-5.7-5.7-15.6-17.1-19.6-31c-0.6-1.9-1-3.9-1.3-6c-0.7,1-1.6,2-2.5,2.7
		c0.2,1.1,0.5,2.2,0.8,3.3c1.1,4.3,2.8,8.3,4.7,12c0,0.1,0.1,0.2,0.1,0.2c4.1,7.9,9.5,14.4,13.6,18.8c0.7,0.8,1.4,1.5,2,2.1
		C50.6,80.6,51.7,80.3,52.9,80.1z"/>
	<path class="st1" d="M54.5,85.5c-2.8,0-5.1,1.9-5.8,4.5c-0.1,0.5-0.2,1-0.2,1.5c0,0,0,0,0,0c0,0.5,0.1,1.1,0.2,1.6
		c0.5,1.8,1.7,3.2,3.4,3.9c0.7,0.3,1.5,0.5,2.4,0.5c0.8,0,1.7-0.2,2.4-0.5c1.7-0.7,2.9-2.2,3.4-3.9c0.1-0.5,0.2-1,0.2-1.6
		c0,0,0,0,0,0c0-0.5-0.1-1-0.2-1.5C59.6,87.4,57.3,85.5,54.5,85.5z"/>
	<path class="st2" d="M57.3,83c-0.6-0.2-1.1-0.3-1.7-0.4c-0.4,0-0.8-0.1-1.1-0.1c-0.4,0-0.8,0-1.1,0.1c-0.6,0.1-1.2,0.2-1.7,0.4
		c-2.9,1-5.2,3.4-5.9,6.4c-0.1,0.5-0.2,1-0.2,1.5c0,0.2,0,0.4,0,0.6c0,0.3,0,0.6,0.1,1c0.2,1.7,0.8,3.3,1.8,4.5
		c1.6,2.1,4.2,3.5,7.1,3.5c2.9,0,5.5-1.4,7.1-3.5c1-1.3,1.7-2.8,1.8-4.5c0-0.3,0.1-0.6,0.1-1c0-0.2,0-0.4,0-0.6c0-0.5-0.1-1-0.2-1.5
		C62.5,86.4,60.3,84,57.3,83z M60.5,91.5C60.5,91.5,60.5,91.5,60.5,91.5c0,0.6-0.1,1.1-0.2,1.6c-0.5,1.8-1.7,3.2-3.4,3.9
		c-0.7,0.3-1.5,0.5-2.4,0.5c-0.8,0-1.7-0.2-2.4-0.5c-1.7-0.7-2.9-2.2-3.4-3.9c-0.1-0.5-0.2-1-0.2-1.6c0,0,0,0,0,0
		c0-0.5,0.1-1,0.2-1.5c0.7-2.6,3-4.5,5.8-4.5c2.8,0,5.1,1.9,5.8,4.5C60.4,90.5,60.5,91,60.5,91.5z"/>
	<path class="st0" d="M29.1,26.9c0.4,0.3,0.7,0.7,1.1,1.1c1.2-1.1,2.5-2.1,3.8-3.1c2.5-1.7,5.1-3.1,8-4.2c0.5-0.2,1.1-0.4,1.6-0.6
		c-0.2-0.5-0.3-1-0.4-1.4c-0.1-0.5-0.2-1-0.2-1.5c-0.3,0.1-0.7,0.2-1,0.3c-3.8,1.3-7.3,3.1-10.5,5.4c-1.3,0.9-2.5,1.9-3.6,3
		C28.3,26.3,28.7,26.6,29.1,26.9z"/>
	<path class="st1" d="M18.5,40.7c0.3,0.2,0.6,0.3,1,0.4c0.5,0.2,1,0.3,1.5,0.3c0.2,0,0.4,0,0.6,0c2.1,0,4.1-1.1,5.2-3
		c0.5-0.9,0.8-2,0.8-3c0-1.2-0.4-2.5-1.1-3.5c-0.3-0.4-0.6-0.8-1-1.1c-0.3-0.2-0.5-0.4-0.9-0.6l0.5-0.8l0.1-0.1l0.2-0.4l-0.8,1.3
		c-0.1-0.1-0.3-0.1-0.4-0.2c-0.8-0.4-1.7-0.6-2.6-0.6c-2.1,0-4.1,1.1-5.2,3c-0.5,0.9-0.8,2-0.8,3c0,1.9,0.9,3.8,2.6,4.9
		C18.2,40.5,18.3,40.6,18.5,40.7z"/>
	<path class="st3" d="M19.9,44.4c0.5,0.1,1,0.1,1.5,0.1c0,0,0,0,0,0c2.4,0,4.7-1,6.4-2.7c0.5-0.5,1-1.1,1.4-1.8
		c0.7-1.3,1.1-2.6,1.2-4c0-0.2,0-0.3,0-0.5c0-2.1-0.8-4.1-2.1-5.8c-0.3-0.4-0.7-0.7-1.1-1.1c-0.4-0.3-0.8-0.6-1.2-0.9
		c0,0-0.1,0-0.1-0.1c-1.4-0.8-3-1.2-4.5-1.2c-3.1,0-6.1,1.6-7.8,4.5c-0.8,1.4-1.2,3-1.2,4.5c0,3.1,1.6,6.1,4.5,7.8
		c0,0,0.1,0,0.1,0.1c0.4,0.3,0.9,0.4,1.4,0.6C18.9,44.1,19.4,44.3,19.9,44.4z M24.5,30.3c0.3,0.2,0.6,0.4,0.9,0.6
		c0.4,0.3,0.7,0.7,1,1.1c0.7,1,1.1,2.2,1.1,3.5c0,1-0.3,2-0.8,3c-1.1,1.9-3.1,3-5.2,3c-0.2,0-0.4,0-0.6,0c-0.5,0-1-0.2-1.5-0.3
		c-0.3-0.1-0.6-0.3-1-0.4c-0.1-0.1-0.3-0.2-0.4-0.3c-1.7-1.1-2.6-3-2.6-4.9c0-1,0.3-2,0.8-3c1.1-1.9,3.1-3,5.2-3
		c0.9,0,1.7,0.2,2.6,0.6C24.2,30.2,24.3,30.2,24.5,30.3"/>
	<path class="st0" d="M92.2,45.5c-0.4,0.2-0.8,0.4-1.2,0.6c-0.5,0.2-0.9,0.4-1.4,0.5c0.1,0.5,0.2,1,0.3,1.4c0.4,2.1,0.6,4.3,0.6,6.5
		c0,1.9-0.1,3.7-0.4,5.5c-0.1,0.5-0.2,1-0.3,1.5c0.5,0.1,1,0.3,1.4,0.5c0.5,0.2,0.9,0.5,1.4,0.7c0.2-0.9,0.4-1.8,0.5-2.8
		c0.3-1.8,0.4-3.6,0.4-5.5c0-2.2-0.2-4.4-0.5-6.5c-0.2-0.9-0.3-1.8-0.5-2.6C92.3,45.4,92.3,45.4,92.2,45.5"/>
	<path class="st0" d="M90.6,42.6"/>
	<path class="st2" d="M76.7,48c-2.3,8.1-6.6,15.3-10.9,21.1c-3.1,4.1-6.2,7.5-8.6,9.9c-0.1,0.1-0.1,0.1-0.2,0.2
		c-0.3,0.3-0.6,0.6-1,0.9c1.2,0.2,2.3,0.5,3.3,1c0.6-0.6,1.3-1.3,2-2.1c3.8-4,8.6-9.8,12.6-16.9c0.4-0.7,0.8-1.4,1.1-2.1
		c1.9-3.7,3.6-7.7,4.7-12c0.2-0.9,0.5-1.8,0.6-2.7c-1-0.6-1.8-1.3-2.6-2.2C77.6,44.8,77.2,46.4,76.7,48z"/>
	<path class="st1" d="M92.5,35.5c0-1-0.3-2-0.8-3c-1.1-1.9-3.1-3-5.2-3c-0.6,0-1.2,0.1-1.8,0.3c-0.4,0.1-0.8,0.3-1.2,0.5
		c-0.1,0-0.1,0.1-0.2,0.2c-0.4,0.3-0.8,0.6-1.2,1c-1,1.1-1.6,2.6-1.6,4.1c0,0.2,0,0.3,0,0.5c0.1,0.9,0.3,1.7,0.8,2.5
		c0,0.1,0.1,0.1,0.1,0.2c1.1,1.8,3.1,2.8,5.1,2.8c0.5,0,1-0.1,1.5-0.2c0.5-0.1,0.9-0.3,1.4-0.6c0,0,0.1,0,0.1-0.1l0,0
		c0.4-0.2,0.8-0.5,1.1-0.9C91.8,38.7,92.5,37.1,92.5,35.5z"/>
	<path class="st3" d="M91,43.3c0.3-0.1,0.5-0.3,0.7-0.5c2.4-1.7,3.8-4.5,3.8-7.3c0-1.5-0.4-3.1-1.2-4.5c-1.7-2.9-4.7-4.5-7.8-4.5
		c-1.3,0-2.7,0.3-3.9,0.9c-0.2,0.1-0.4,0.2-0.6,0.3c-0.3,0.2-0.5,0.3-0.8,0.5c-0.4,0.3-0.8,0.6-1.2,1c-1.7,1.7-2.6,4-2.6,6.3
		c0,1.3,0.3,2.6,0.9,3.8c0.1,0.2,0.2,0.5,0.4,0.7c0.6,1,1.4,1.9,2.3,2.6c1.6,1.2,3.5,1.9,5.5,1.9c0.8,0,1.7-0.1,2.5-0.4
		c0.5-0.1,0.9-0.3,1.4-0.5C90.5,43.5,90.8,43.4,91,43.3 M89.5,40.7L89.5,40.7c0,0-0.1,0-0.1,0.1c-0.5,0.2-0.9,0.4-1.4,0.6
		c-0.5,0.1-1,0.2-1.5,0.2c-2,0-4-1-5.1-2.8c0-0.1-0.1-0.1-0.1-0.2c-0.5-0.8-0.7-1.6-0.8-2.5c0-0.2,0-0.3,0-0.5c0-1.5,0.6-3,1.6-4.1
		c0.3-0.4,0.7-0.7,1.2-1c0.1,0,0.1-0.1,0.2-0.2c0.4-0.2,0.8-0.4,1.2-0.5c0.6-0.2,1.2-0.3,1.8-0.3c2.1,0,4.1,1.1,5.2,3
		c0.5,0.9,0.8,2,0.8,3c0,1.6-0.7,3.2-1.9,4.3C90.3,40.2,89.9,40.5,89.5,40.7z"/>
</g>
</svg>
