<?xml version="1.0" encoding="utf-8"?>
<!-- Generator: Adobe Illustrator 21.0.0, SVG Export Plug-In . SVG Version: 6.00 Build 0)  -->
<svg version="1.1" id="Layer_1" xmlns="http://www.w3.org/2000/svg" xmlns:xlink="http://www.w3.org/1999/xlink" x="0px" y="0px"
	 viewBox="0 0 400 150" style="enable-background:new 0 0 400 150;" xml:space="preserve">
<style type="text/css">
	.st0{clip-path:url(#SVGID_4_);}
	.st1{clip-path:url(#SVGID_5_);}
	.st2{clip-path:url(#SVGID_6_);fill:#FFFFFF;}
	.st3{fill:none;stroke:#E0E0E0;stroke-width:3;stroke-miterlimit:10;}
	.st4{clip-path:url(#SVGID_10_);}
	.st5{clip-path:url(#SVGID_11_);}
	.st6{clip-path:url(#SVGID_12_);fill:#FFFFFF;}
	.st7{clip-path:url(#SVGID_16_);}
	.st8{clip-path:url(#SVGID_17_);}
	.st9{clip-path:url(#SVGID_18_);fill:none;stroke:#FFFFFF;stroke-width:8;stroke-miterlimit:10;}
	.st10{clip-path:url(#SVGID_22_);}
	.st11{clip-path:url(#SVGID_23_);}
	.st12{clip-path:url(#SVGID_24_);fill:#FFFFFF;}
	.st13{clip-path:url(#SVGID_28_);}
	.st14{clip-path:url(#SVGID_29_);}
	.st15{clip-path:url(#SVGID_30_);fill:none;stroke:#FFFFFF;stroke-width:8;stroke-miterlimit:10;}
	.st16{clip-path:url(#SVGID_34_);}
	.st17{clip-path:url(#SVGID_35_);}
	.st18{clip-path:url(#SVGID_36_);fill:#FFFFFF;}
	.st19{clip-path:url(#SVGID_40_);}
	.st20{clip-path:url(#SVGID_41_);}
	.st21{clip-path:url(#SVGID_42_);fill:none;stroke:#FFFFFF;stroke-width:8;stroke-miterlimit:10;}
	.st22{fill:none;stroke:#67CB9C;stroke-width:3;stroke-miterlimit:10;}
	.st23{clip-path:url(#SVGID_46_);}
	.st24{clip-path:url(#SVGID_47_);}
	.st25{clip-path:url(#SVGID_48_);fill:#FFFFFF;}
	.st26{clip-path:url(#SVGID_52_);}
	.st27{clip-path:url(#SVGID_53_);}
	.st28{clip-path:url(#SVGID_54_);fill:none;stroke:#FFFFFF;stroke-width:8;stroke-miterlimit:10;}
	.st29{clip-path:url(#SVGID_58_);}
	.st30{clip-path:url(#SVGID_59_);}
	.st31{clip-path:url(#SVGID_60_);fill:#FFFFFF;}
	.st32{clip-path:url(#SVGID_64_);}
	.st33{clip-path:url(#SVGID_65_);}
	.st34{clip-path:url(#SVGID_66_);fill:none;stroke:#FFFFFF;stroke-width:8;stroke-miterlimit:10;}
	.st35{fill:none;stroke:#77CEA5;stroke-width:3;stroke-miterlimit:10;}
	.st36{clip-path:url(#SVGID_70_);}
	.st37{clip-path:url(#SVGID_71_);}
	.st38{clip-path:url(#SVGID_72_);fill:#FFFFFF;}
	.st39{clip-path:url(#SVGID_76_);}
	.st40{clip-path:url(#SVGID_77_);}
	.st41{clip-path:url(#SVGID_78_);fill:none;stroke:#FFFFFF;stroke-width:8;stroke-miterlimit:10;}
	.st42{fill:#85D6B4;}
</style>
<g>
	<g>
		<defs>
			<rect id="SVGID_1_" x="-34" y="-45" width="480" height="240"/>
		</defs>
		<defs>
			<path id="SVGID_2_" d="M90.5,113c20.7,0,37.5-16.8,37.5-37.5C128,54.8,111.2,38,90.5,38S53,54.8,53,75.5
				C53,96.2,69.8,113,90.5,113L90.5,113z M90.5,113"/>
		</defs>
		<defs>
			<path id="SVGID_3_" d="M-34-45h480v240H-34V-45z M-34-45"/>
		</defs>
		<clipPath id="SVGID_4_">
			<use xlink:href="#SVGID_1_"  style="overflow:visible;"/>
		</clipPath>
		<clipPath id="SVGID_5_" class="st0">
			<use xlink:href="#SVGID_2_"  style="overflow:visible;"/>
		</clipPath>
		<clipPath id="SVGID_6_" class="st1">
			<use xlink:href="#SVGID_3_"  style="overflow:visible;"/>
		</clipPath>
		<rect x="48" y="33" class="st2" width="85" height="85"/>
	</g>
	<path class="st3" d="M90.5,113c20.7,0,37.5-16.8,37.5-37.5C128,54.8,111.2,38,90.5,38S53,54.8,53,75.5C53,96.2,69.8,113,90.5,113
		L90.5,113z M90.5,113"/>
	<g>
		<defs>
			<rect id="SVGID_7_" x="-34" y="-45" width="480" height="240"/>
		</defs>
		<defs>
			<path id="SVGID_8_" d="M98.8,37.5c0-4.6-3.7-8.2-8.2-8.2c-4.6,0-8.2,3.7-8.2,8.2s3.7,8.2,8.2,8.2C95.1,45.8,98.8,42.1,98.8,37.5
				L98.8,37.5z M98.8,37.5"/>
		</defs>
		<defs>
			<path id="SVGID_9_" d="M-34-45h480v240H-34V-45z M-34-45"/>
		</defs>
		<clipPath id="SVGID_10_">
			<use xlink:href="#SVGID_7_"  style="overflow:visible;"/>
		</clipPath>
		<clipPath id="SVGID_11_" class="st4">
			<use xlink:href="#SVGID_8_"  style="overflow:visible;"/>
		</clipPath>
		<clipPath id="SVGID_12_" class="st5">
			<use xlink:href="#SVGID_9_"  style="overflow:visible;"/>
		</clipPath>
		<rect x="78" y="25" class="st6" width="25" height="25"/>
	</g>
	<g>
		<defs>
			<rect id="SVGID_13_" x="-34" y="-45" width="480" height="240"/>
		</defs>
		<defs>
			<path id="SVGID_14_" d="M69,16h43v43H69V16z M98,37.5c0-4.1-3.4-7.5-7.5-7.5c-4.1,0-7.5,3.4-7.5,7.5s3.4,7.5,7.5,7.5
				C94.6,45,98,41.6,98,37.5L98,37.5z M98,37.5"/>
		</defs>
		<defs>
			<path id="SVGID_15_" d="M-34-45h480v240H-34V-45z M-34-45"/>
		</defs>
		<clipPath id="SVGID_16_">
			<use xlink:href="#SVGID_13_"  style="overflow:visible;"/>
		</clipPath>
		<clipPath id="SVGID_17_" class="st7">
			<use xlink:href="#SVGID_14_"  style="overflow:visible;"/>
		</clipPath>
		<clipPath id="SVGID_18_" class="st8">
			<use xlink:href="#SVGID_15_"  style="overflow:visible;"/>
		</clipPath>
		<path class="st9" d="M98,37.5c0-4.1-3.4-7.5-7.5-7.5c-4.1,0-7.5,3.4-7.5,7.5c0,4.1,3.4,7.5,7.5,7.5C94.6,45,98,41.6,98,37.5
			L98,37.5z M98,37.5"/>
	</g>
	<path class="st3" d="M98,37.5c0-4.1-3.4-7.5-7.5-7.5c-4.1,0-7.5,3.4-7.5,7.5c0,4.1,3.4,7.5,7.5,7.5C94.6,45,98,41.6,98,37.5
		L98,37.5z M98,37.5"/>
	<g>
		<defs>
			<rect id="SVGID_19_" x="-34" y="-45" width="480" height="240"/>
		</defs>
		<defs>
			<path id="SVGID_20_" d="M61.6,86.4c-3.9-2.3-9-0.9-11.3,3c-2.3,3.9-0.9,9,3,11.3c3.9,2.3,9,0.9,11.3-3S65.6,88.6,61.6,86.4
				L61.6,86.4L61.6,86.4z M61.6,86.4"/>
		</defs>
		<defs>
			<path id="SVGID_21_" d="M-34-45h480v240H-34V-45z M-34-45"/>
		</defs>
		<clipPath id="SVGID_22_">
			<use xlink:href="#SVGID_19_"  style="overflow:visible;"/>
		</clipPath>
		<clipPath id="SVGID_23_" class="st10">
			<use xlink:href="#SVGID_20_"  style="overflow:visible;"/>
		</clipPath>
		<clipPath id="SVGID_24_" class="st11">
			<use xlink:href="#SVGID_21_"  style="overflow:visible;"/>
		</clipPath>
		<rect x="45" y="81" class="st12" width="25" height="25"/>
	</g>
	<g>
		<defs>
			<rect id="SVGID_25_" x="-34" y="-45" width="480" height="240"/>
		</defs>
		<defs>
			<path id="SVGID_26_" d="M36,72h43v43H36V72z M61.3,87c-3.6-2.1-8.2-0.8-10.2,2.7c-2.1,3.6-0.8,8.2,2.7,10.2
				c3.6,2.1,8.2,0.8,10.2-2.7C66.1,93.7,64.8,89.1,61.3,87L61.3,87z M61.3,87"/>
		</defs>
		<defs>
			<path id="SVGID_27_" d="M-34-45h480v240H-34V-45z M-34-45"/>
		</defs>
		<clipPath id="SVGID_28_">
			<use xlink:href="#SVGID_25_"  style="overflow:visible;"/>
		</clipPath>
		<clipPath id="SVGID_29_" class="st13">
			<use xlink:href="#SVGID_26_"  style="overflow:visible;"/>
		</clipPath>
		<clipPath id="SVGID_30_" class="st14">
			<use xlink:href="#SVGID_27_"  style="overflow:visible;"/>
		</clipPath>
		<path class="st15" d="M61.3,87c-3.6-2.1-8.2-0.8-10.2,2.7c-2.1,3.6-0.8,8.2,2.7,10.2c3.6,2.1,8.2,0.8,10.2-2.7S64.8,89.1,61.3,87
			L61.3,87z M61.3,87"/>
	</g>
	<path class="st3" d="M61.3,87c-3.6-2.1-8.2-0.8-10.2,2.7c-2.1,3.6-0.8,8.2,2.7,10.2c3.6,2.1,8.2,0.8,10.2-2.7S64.8,89.1,61.3,87
		L61.3,87z M61.3,87"/>
	<g>
		<defs>
			<rect id="SVGID_31_" x="-34" y="-45" width="480" height="240"/>
		</defs>
		<defs>
			<path id="SVGID_32_" d="M126.6,100.6c3.9-2.3,5.3-7.3,3-11.3c-2.3-3.9-7.3-5.3-11.3-3c-3.9,2.3-5.3,7.3-3,11.3
				S122.7,102.9,126.6,100.6L126.6,100.6z M126.6,100.6"/>
		</defs>
		<defs>
			<path id="SVGID_33_" d="M-34-45h480v240H-34V-45z M-34-45"/>
		</defs>
		<clipPath id="SVGID_34_">
			<use xlink:href="#SVGID_31_"  style="overflow:visible;"/>
		</clipPath>
		<clipPath id="SVGID_35_" class="st16">
			<use xlink:href="#SVGID_32_"  style="overflow:visible;"/>
		</clipPath>
		<clipPath id="SVGID_36_" class="st17">
			<use xlink:href="#SVGID_33_"  style="overflow:visible;"/>
		</clipPath>
		<rect x="110" y="81" class="st18" width="25" height="25"/>
	</g>
	<g>
		<defs>
			<rect id="SVGID_37_" x="-34" y="-45" width="480" height="240"/>
		</defs>
		<defs>
			<path id="SVGID_38_" d="M101,72h43v43h-43V72z M126.3,100c3.6-2.1,4.8-6.7,2.7-10.2c-2.1-3.6-6.7-4.8-10.2-2.7
				c-3.6,2.1-4.8,6.7-2.7,10.2C118.1,100.8,122.7,102.1,126.3,100L126.3,100z M126.3,100"/>
		</defs>
		<defs>
			<path id="SVGID_39_" d="M-34-45h480v240H-34V-45z M-34-45"/>
		</defs>
		<clipPath id="SVGID_40_">
			<use xlink:href="#SVGID_37_"  style="overflow:visible;"/>
		</clipPath>
		<clipPath id="SVGID_41_" class="st19">
			<use xlink:href="#SVGID_38_"  style="overflow:visible;"/>
		</clipPath>
		<clipPath id="SVGID_42_" class="st20">
			<use xlink:href="#SVGID_39_"  style="overflow:visible;"/>
		</clipPath>
		<path class="st21" d="M126.3,100c3.6-2.1,4.8-6.7,2.7-10.2s-6.7-4.8-10.2-2.7c-3.6,2.1-4.8,6.7-2.7,10.2
			C118.1,100.8,122.7,102.1,126.3,100L126.3,100z M126.3,100"/>
	</g>
	<path class="st3" d="M126.3,100c3.6-2.1,4.8-6.7,2.7-10.2s-6.7-4.8-10.2-2.7c-3.6,2.1-4.8,6.7-2.7,10.2
		C118.1,100.8,122.7,102.1,126.3,100L126.3,100z M126.3,100"/>
	<path class="st22" d="M91,105c0,0-26-21.3-26-48"/>
	<path class="st22" d="M90,105c0,0,26-21.3,26-48"/>
	<g>
		<defs>
			<rect id="SVGID_43_" x="-34" y="-45" width="480" height="240"/>
		</defs>
		<defs>
			<path id="SVGID_44_" d="M98.8,112.5c0-4.6-3.7-8.2-8.2-8.2c-4.6,0-8.2,3.7-8.2,8.2c0,4.6,3.7,8.2,8.2,8.2
				C95.1,120.7,98.8,117.1,98.8,112.5L98.8,112.5z M98.8,112.5"/>
		</defs>
		<defs>
			<path id="SVGID_45_" d="M-34-45h480v240H-34V-45z M-34-45"/>
		</defs>
		<clipPath id="SVGID_46_">
			<use xlink:href="#SVGID_43_"  style="overflow:visible;"/>
		</clipPath>
		<clipPath id="SVGID_47_" class="st23">
			<use xlink:href="#SVGID_44_"  style="overflow:visible;"/>
		</clipPath>
		<clipPath id="SVGID_48_" class="st24">
			<use xlink:href="#SVGID_45_"  style="overflow:visible;"/>
		</clipPath>
		<rect x="78" y="100" class="st25" width="25" height="25"/>
	</g>
	<g>
		<defs>
			<rect id="SVGID_49_" x="-34" y="-45" width="480" height="240"/>
		</defs>
		<defs>
			<path id="SVGID_50_" d="M69,91h43v43H69V91z M98,112.5c0-4.1-3.4-7.5-7.5-7.5c-4.1,0-7.5,3.4-7.5,7.5c0,4.1,3.4,7.5,7.5,7.5
				C94.6,120,98,116.6,98,112.5L98,112.5z M98,112.5"/>
		</defs>
		<defs>
			<path id="SVGID_51_" d="M-34-45h480v240H-34V-45z M-34-45"/>
		</defs>
		<clipPath id="SVGID_52_">
			<use xlink:href="#SVGID_49_"  style="overflow:visible;"/>
		</clipPath>
		<clipPath id="SVGID_53_" class="st26">
			<use xlink:href="#SVGID_50_"  style="overflow:visible;"/>
		</clipPath>
		<clipPath id="SVGID_54_" class="st27">
			<use xlink:href="#SVGID_51_"  style="overflow:visible;"/>
		</clipPath>
		<path class="st28" d="M98,112.5c0-4.1-3.4-7.5-7.5-7.5c-4.1,0-7.5,3.4-7.5,7.5c0,4.1,3.4,7.5,7.5,7.5C94.6,120,98,116.6,98,112.5
			L98,112.5z M98,112.5"/>
	</g>
	<path class="st22" d="M98,112.5c0-4.1-3.4-7.5-7.5-7.5c-4.1,0-7.5,3.4-7.5,7.5c0,4.1,3.4,7.5,7.5,7.5C94.6,120,98,116.6,98,112.5
		L98,112.5z M98,112.5"/>
	<g>
		<defs>
			<rect id="SVGID_55_" x="-34" y="-45" width="480" height="240"/>
		</defs>
		<defs>
			<path id="SVGID_56_" d="M61.6,49.4c-3.9-2.3-9-0.9-11.3,3c-2.3,3.9-0.9,9,3,11.3s9,0.9,11.3-3C66.9,56.7,65.6,51.6,61.6,49.4
				L61.6,49.4L61.6,49.4z M61.6,49.4"/>
		</defs>
		<defs>
			<path id="SVGID_57_" d="M-34-45h480v240H-34V-45z M-34-45"/>
		</defs>
		<clipPath id="SVGID_58_">
			<use xlink:href="#SVGID_55_"  style="overflow:visible;"/>
		</clipPath>
		<clipPath id="SVGID_59_" class="st29">
			<use xlink:href="#SVGID_56_"  style="overflow:visible;"/>
		</clipPath>
		<clipPath id="SVGID_60_" class="st30">
			<use xlink:href="#SVGID_57_"  style="overflow:visible;"/>
		</clipPath>
		<rect x="45" y="44" class="st31" width="25" height="25"/>
	</g>
	<g>
		<defs>
			<rect id="SVGID_61_" x="-34" y="-45" width="480" height="240"/>
		</defs>
		<defs>
			<path id="SVGID_62_" d="M36,35h43v43H36V35z M61.3,50c-3.6-2.1-8.2-0.8-10.2,2.7c-2.1,3.6-0.8,8.2,2.7,10.2
				c3.6,2.1,8.2,0.8,10.2-2.7C66.1,56.7,64.8,52.1,61.3,50L61.3,50z M61.3,50"/>
		</defs>
		<defs>
			<path id="SVGID_63_" d="M-34-45h480v240H-34V-45z M-34-45"/>
		</defs>
		<clipPath id="SVGID_64_">
			<use xlink:href="#SVGID_61_"  style="overflow:visible;"/>
		</clipPath>
		<clipPath id="SVGID_65_" class="st32">
			<use xlink:href="#SVGID_62_"  style="overflow:visible;"/>
		</clipPath>
		<clipPath id="SVGID_66_" class="st33">
			<use xlink:href="#SVGID_63_"  style="overflow:visible;"/>
		</clipPath>
		<path class="st34" d="M61.3,50c-3.6-2.1-8.2-0.8-10.2,2.7c-2.1,3.6-0.8,8.2,2.7,10.2c3.6,2.1,8.2,0.8,10.2-2.7
			C66.1,56.7,64.8,52.1,61.3,50L61.3,50z M61.3,50"/>
	</g>
	<path class="st35" d="M61.3,50c-3.6-2.1-8.2-0.8-10.2,2.7c-2.1,3.6-0.8,8.2,2.7,10.2c3.6,2.1,8.2,0.8,10.2-2.7
		C66.1,56.7,64.8,52.1,61.3,50L61.3,50z M61.3,50"/>
	<g>
		<defs>
			<rect id="SVGID_67_" x="-34" y="-45" width="480" height="240"/>
		</defs>
		<defs>
			<path id="SVGID_68_" d="M126.6,63.6c3.9-2.3,5.3-7.3,3-11.3c-2.3-3.9-7.3-5.3-11.3-3c-3.9,2.3-5.3,7.3-3,11.3
				C117.6,64.6,122.7,65.9,126.6,63.6L126.6,63.6z M126.6,63.6"/>
		</defs>
		<defs>
			<path id="SVGID_69_" d="M-34-45h480v240H-34V-45z M-34-45"/>
		</defs>
		<clipPath id="SVGID_70_">
			<use xlink:href="#SVGID_67_"  style="overflow:visible;"/>
		</clipPath>
		<clipPath id="SVGID_71_" class="st36">
			<use xlink:href="#SVGID_68_"  style="overflow:visible;"/>
		</clipPath>
		<clipPath id="SVGID_72_" class="st37">
			<use xlink:href="#SVGID_69_"  style="overflow:visible;"/>
		</clipPath>
		<rect x="110" y="44" class="st38" width="25" height="25"/>
	</g>
	<g>
		<defs>
			<rect id="SVGID_73_" x="-34" y="-45" width="480" height="240"/>
		</defs>
		<defs>
			<path id="SVGID_74_" d="M101,35h43v43h-43V35z M126.3,63c3.6-2.1,4.8-6.7,2.7-10.2c-2.1-3.6-6.7-4.8-10.2-2.7
				c-3.6,2.1-4.8,6.7-2.7,10.2C118.1,63.8,122.7,65.1,126.3,63L126.3,63z M126.3,63"/>
		</defs>
		<defs>
			<path id="SVGID_75_" d="M-34-45h480v240H-34V-45z M-34-45"/>
		</defs>
		<clipPath id="SVGID_76_">
			<use xlink:href="#SVGID_73_"  style="overflow:visible;"/>
		</clipPath>
		<clipPath id="SVGID_77_" class="st39">
			<use xlink:href="#SVGID_74_"  style="overflow:visible;"/>
		</clipPath>
		<clipPath id="SVGID_78_" class="st40">
			<use xlink:href="#SVGID_75_"  style="overflow:visible;"/>
		</clipPath>
		<path class="st41" d="M126.3,63c3.6-2.1,4.8-6.7,2.7-10.2s-6.7-4.8-10.2-2.7c-3.6,2.1-4.8,6.7-2.7,10.2
			C118.1,63.8,122.7,65.1,126.3,63L126.3,63z M126.3,63"/>
	</g>
	<path class="st35" d="M126.3,63c3.6-2.1,4.8-6.7,2.7-10.2s-6.7-4.8-10.2-2.7c-3.6,2.1-4.8,6.7-2.7,10.2
		C118.1,63.8,122.7,65.1,126.3,63L126.3,63z M126.3,63"/>
	<g>
		<path class="st42" d="M155.4,63.4c-0.9-2.1,2.4-3.4,3.4-1.3l12.3,24.6l12-24.5c0.8-2,4-0.9,3.3,1.2l-13.8,28
			c-0.7,1.2-2.4,1.5-3.2-0.1L155.4,63.4z"/>
		<path class="st42" d="M198,88.8h19c2,0,2.3,3.2,0,3.2h-20.2c-1.3,0-2.2-1-2.2-2.1V63.5c0-1.1,0.9-2.1,2.2-2.1H217
			c2.1,0,2,3.1,0,3.1h-19v10.8h18c1.9,0,2,3.1,0,3.1h-18V88.8z"/>
		<path class="st42" d="M249.2,90.8c-2.3,1.1-4.9,1.7-7.2,1.7c-8.2,0-15.6-6.7-15.6-16.2c0-7.9,5.6-14.1,13-15.3
			c5.6-0.8,10.5,0.6,14.3,4.6c1.4,1.6-1.2,3.6-2.5,2.2c-3.3-3.5-7.1-4-11.3-3.5c-5.9,0.9-10.1,5.1-10.1,12c0,7.3,5.6,12.9,12.2,12.9
			c1.8,0,3.7-0.5,5.6-1.4c1.5-0.8,2.9-1.9,3.9-3.2c1.1-1.6,4,0.1,2.8,1.9C253.1,88.4,251.3,89.8,249.2,90.8z"/>
		<path class="st42" d="M285.6,61.4c2.4,0,2.4,3.3,0,3.3h-10.7c0,8.6,0,17.4,0,26.1c0,1.2-1,1.8-1.8,1.8s-1.7-0.6-1.7-1.8V64.7
			h-10.7c-2.3,0-2.3-3.3,0-3.3H285.6z"/>
	</g>
	<g>
		<path class="st42" d="M291.1,76.2c0-7.5,5.1-14,12.7-15.2c1.8-0.2,3.4-0.2,5.1,0c7.4,1.2,13.1,7.3,13.1,15.2
			c0,10-7.2,16.3-15.4,16.3C298,92.5,291.1,86.4,291.1,76.2z M294.7,76.4c0,7.9,5.2,12.9,12,12.9c6.5,0,11.8-4.8,11.8-12.9
			c0-6.2-4.1-11.1-10-12.1c-1.4-0.2-2.8-0.2-4.2,0C298.5,65.2,294.7,69.8,294.7,76.4z"/>
		<path class="st42" d="M335.2,81.3v9.3c0,2.2-3.5,2.2-3.5,0V63.1c0-1,0.7-1.7,1.8-1.7h11.4c8.3,0,12.5,4.7,12.5,10.3
			c0,4.8-2.6,8.4-8.5,9.4l7.8,8.4c1.8,1.8-0.8,3.9-2.4,2.3l-9.7-10.5H335.2z M335.2,78.3h9.7c6.3,0,9-2.9,8.9-6.5
			c0-3.9-3.4-7.1-8.9-7.1h-9.7V78.3z"/>
	</g>
</g>
</svg>
