<svg width="128" height="64" viewBox="0 0 128 64" fill="none" xmlns="http://www.w3.org/2000/svg">
<rect width="128" height="64" fill="black"/>
<path d="M51.2169 32.231H43.6697C43.7589 33.0214 44.0455 33.6525 44.5295 34.1242C45.0136 34.5832 45.6504 34.8127 46.4402 34.8127C46.9624 34.8127 47.4338 34.6852 47.8541 34.4302C48.2745 34.1752 48.5738 33.831 48.7521 33.3975H51.0449C50.7392 34.4047 50.166 35.2206 49.3253 35.8453C48.4974 36.4573 47.5165 36.7633 46.3829 36.7633C44.9053 36.7633 43.7079 36.2724 42.7908 35.2908C41.8864 34.3091 41.4342 33.0661 41.4342 31.5617C41.4342 30.0955 41.8928 28.8653 42.8099 27.8708C43.727 26.8764 44.9116 26.3792 46.3638 26.3792C47.8159 26.3792 48.9878 26.87 49.8794 27.8517C50.7838 28.8206 51.236 30.0445 51.236 31.5234L51.2169 32.231ZM46.3638 28.2342C45.6504 28.2342 45.0581 28.4445 44.5868 28.8653C44.1155 29.286 43.8226 29.8469 43.7079 30.5481H48.9814C48.8795 29.8469 48.5993 29.286 48.1407 28.8653C47.6821 28.4445 47.0898 28.2342 46.3638 28.2342Z" fill="white"/>
<path d="M52.8007 33.5696V22.1912H55.0744V33.6079C55.0744 34.1179 55.3546 34.3728 55.9151 34.3728L56.3163 34.3537V36.5147C56.0998 36.5529 55.8705 36.572 55.6285 36.572C54.6477 36.572 53.928 36.3234 53.4694 35.8262C53.0236 35.329 52.8007 34.5768 52.8007 33.5696Z" fill="white"/>
<path d="M66.9054 32.231H59.3582C59.4474 33.0214 59.734 33.6525 60.218 34.1242C60.7021 34.5832 61.339 34.8127 62.1287 34.8127C62.651 34.8127 63.1223 34.6852 63.5426 34.4302C63.963 34.1752 64.2623 33.831 64.4406 33.3975H66.7335C66.4277 34.4047 65.8545 35.2206 65.0138 35.8453C64.1859 36.4573 63.2051 36.7633 62.0714 36.7633C60.5938 36.7633 59.3964 36.2724 58.4793 35.2908C57.5749 34.3091 57.1227 33.0661 57.1227 31.5617C57.1227 30.0955 57.5813 28.8653 58.4984 27.8708C59.4155 26.8764 60.6002 26.3792 62.0523 26.3792C63.5044 26.3792 64.6763 26.87 65.5679 27.8517C66.4723 28.8206 66.9245 30.0445 66.9245 31.5234L66.9054 32.231ZM62.0523 28.2342C61.339 28.2342 60.7466 28.4445 60.2753 28.8653C59.804 29.286 59.5111 29.8469 59.3964 30.5481H64.6699C64.568 29.8469 64.2878 29.286 63.8292 28.8653C63.3706 28.4445 62.7783 28.2342 62.0523 28.2342Z" fill="white"/>
<path d="M77.1637 30.835V36.5338H74.89V30.5864C74.89 29.082 74.2658 28.3298 73.0175 28.3298C72.3424 28.3298 71.801 28.5465 71.3934 28.98C70.9986 29.4135 70.8011 30.0063 70.8011 30.7585V36.5338H68.5274V26.6087H70.6292V27.9282C70.8712 27.482 71.2406 27.1123 71.7374 26.8191C72.2341 26.5258 72.8519 26.3792 73.5907 26.3792C74.9664 26.3792 75.96 26.9019 76.5714 27.9473C77.4121 26.9019 78.533 26.3792 79.9342 26.3792C81.0933 26.3792 81.985 26.7426 82.6091 27.4692C83.2333 28.1832 83.5454 29.1266 83.5454 30.2995V36.5338H81.2717V30.5864C81.2717 29.082 80.6475 28.3298 79.3992 28.3298C78.7113 28.3298 78.1636 28.5529 77.756 28.9991C77.3611 29.4326 77.1637 30.0445 77.1637 30.835Z" fill="white"/>
<path d="M94.8529 32.231H87.3057C87.3949 33.0214 87.6815 33.6525 88.1655 34.1242C88.6495 34.5832 89.2864 34.8127 90.0762 34.8127C90.5984 34.8127 91.0697 34.6852 91.4901 34.4302C91.9104 34.1752 92.2098 33.831 92.3881 33.3975H94.6809C94.3752 34.4047 93.802 35.2206 92.9613 35.8453C92.1334 36.4573 91.1525 36.7633 90.0189 36.7633C88.5413 36.7633 87.3439 36.2724 86.4268 35.2908C85.5224 34.3091 85.0702 33.0661 85.0702 31.5617C85.0702 30.0955 85.5288 28.8653 86.4459 27.8708C87.363 26.8764 88.5476 26.3792 89.9998 26.3792C91.4519 26.3792 92.6238 26.87 93.5154 27.8517C94.4198 28.8206 94.872 30.0445 94.872 31.5234L94.8529 32.231ZM89.9998 28.2342C89.2864 28.2342 88.6941 28.4445 88.2228 28.8653C87.7515 29.286 87.4585 29.8469 87.3439 30.5481H92.6174C92.5155 29.8469 92.2353 29.286 91.7767 28.8653C91.3181 28.4445 90.7258 28.2342 89.9998 28.2342Z" fill="white"/>
<path d="M98.5766 26.6087V27.9282C98.8059 27.4947 99.1817 27.1314 99.7039 26.8382C100.239 26.5322 100.882 26.3792 101.634 26.3792C102.806 26.3792 103.71 26.7362 104.347 27.4501C104.997 28.1641 105.321 29.1139 105.321 30.2995V36.5338H103.048V30.5864C103.048 29.8852 102.882 29.337 102.551 28.9418C102.232 28.5338 101.742 28.3298 101.08 28.3298C100.354 28.3298 99.7804 28.5465 99.36 28.98C98.9524 29.4135 98.7486 30.0127 98.7486 30.7776V36.5338H96.4749V26.6087H98.5766Z" fill="white"/>
<path d="M111.962 34.5067V36.4764C111.681 36.5529 111.287 36.5912 110.777 36.5912C108.841 36.5912 107.873 35.6159 107.873 33.6653V28.4254H106.363V26.6087H107.873V24.027H110.147V26.6087H112V28.4254H110.147V33.4358C110.147 34.2135 110.516 34.6023 111.255 34.6023L111.962 34.5067Z" fill="white"/>
<path fill-rule="evenodd" clip-rule="evenodd" d="M22.8844 23.1474C22.8844 22.5137 23.3981 22 24.0318 22C28.2565 22 31.6812 25.4248 31.6812 29.6494C31.6812 30.2831 31.1675 30.7968 30.5338 30.7968C29.9001 30.7968 29.3864 30.2831 29.3864 29.6494C29.3864 26.6921 26.9891 24.2948 24.0318 24.2948C23.3981 24.2948 22.8844 23.7811 22.8844 23.1474Z" fill="white"/>
<path fill-rule="evenodd" clip-rule="evenodd" d="M28.239 39.9761C28.239 40.6098 27.7253 41.1235 27.0916 41.1235C22.867 41.1235 19.4422 37.6988 19.4422 33.4741C19.4422 32.8404 19.9559 32.3267 20.5896 32.3267C21.2233 32.3267 21.737 32.8404 21.737 33.4741C21.737 36.4314 24.1343 38.8287 27.0916 38.8287C27.7253 38.8287 28.239 39.3424 28.239 39.9761Z" fill="white"/>
<path fill-rule="evenodd" clip-rule="evenodd" d="M17.1474 34.239C16.5137 34.239 16 33.7253 16 33.0916C16 28.867 19.4248 25.4422 23.6494 25.4422C24.2831 25.4422 24.7968 25.9559 24.7968 26.5896C24.7968 27.2233 24.2831 27.737 23.6494 27.737C20.6921 27.737 18.2948 30.1343 18.2948 33.0916C18.2948 33.7253 17.7811 34.239 17.1474 34.239Z" fill="white"/>
<path fill-rule="evenodd" clip-rule="evenodd" d="M33.9761 28.8844C34.6098 28.8844 35.1235 29.3981 35.1235 30.0318C35.1235 34.2565 31.6988 37.6812 27.4741 37.6812C26.8404 37.6812 26.3267 37.1675 26.3267 36.5338C26.3267 35.9001 26.8404 35.3864 27.4741 35.3864C30.4314 35.3864 32.8287 32.9891 32.8287 30.0318C32.8287 29.3981 33.3424 28.8844 33.9761 28.8844Z" fill="white"/>
</svg>
